<?xml version="1.0" encoding="UTF-8" standalone="no"?>
<svg
   viewBox="0 0 14 13.857"
   version="1.1"
   id="svg334"
   sodipodi:docname="anemo_simplified.svg"
   inkscape:version="1.2.2 (732a01da63, 2022-12-09)"
   xmlns:inkscape="http://www.inkscape.org/namespaces/inkscape"
   xmlns:sodipodi="http://sodipodi.sourceforge.net/DTD/sodipodi-0.dtd"
   xmlns="http://www.w3.org/2000/svg"
   xmlns:svg="http://www.w3.org/2000/svg"
   xmlns:rdf="http://www.w3.org/1999/02/22-rdf-syntax-ns#"
   xmlns:cc="http://creativecommons.org/ns#"
   xmlns:dc="http://purl.org/dc/elements/1.1/">
  <title
     id="title408">Anemo</title>
  <defs
     id="defs338" />
  <sodipodi:namedview
     id="namedview336"
     pagecolor="#505050"
     bordercolor="#ffffff"
     borderopacity="1"
     inkscape:showpageshadow="0"
     inkscape:pageopacity="0"
     inkscape:pagecheckerboard="1"
     inkscape:deskcolor="#505050"
     showgrid="false"
     inkscape:zoom="38.608644"
     inkscape:cx="4.6103665"
     inkscape:cy="8.0033891"
     inkscape:window-width="1366"
     inkscape:window-height="715"
     inkscape:window-x="-8"
     inkscape:window-y="-8"
     inkscape:window-maximized="1"
     inkscape:current-layer="svg334" />
  <path
     d="M 0.2,4.834 C 0.964,6.034 2.013,7.309 3.562,7.268 4.587,7.201 5.936,7.492 6.241,8.627 6.554,9.492 5.416,10.609 4.728,9.751 4.62,9.564 4.689,9.451 4.901,9.425 c 1,0.021 1.348,-1.12 0.4,-1.513 C 4.488,7.812 3.753,8.439 2.972,8.619 0.791,9.247 -0.524,6.656 0.2,4.834 Z m 9.912,2.429 C 9.056,7.189 7.663,7.826 7.737,9.049 c -0.011846,0.5955658 0.5094279,1.061869 1.1,0.984 0.316,0.013 0.724,-0.546 0.294,-0.612 -1.621,0 -1.022,-2.1 0.346,-1.4 0.715738,0.4109333 1.518685,0.6463684 2.343,0.687 1.8,-0.177 2.572,-2.3 1.989,-3.859 -0.871,1.303 -1.957,2.597 -3.697,2.414 z M 7.692,6.491 C 8.4751231,6.3243953 9.2265957,6.0337314 9.918,5.63 12.277284,4.3006614 11.881851,0.78931204 9.286,0.018 10.414264,2.2745728 9.7390868,5.016369 7.692,6.491 Z M 6.349,6.477 C 4.2651916,5.026688 3.575054,2.2588728 4.734,0 2.3954082,0.69352911 1.7566494,3.7034381 3.612,5.287 4.4263892,5.8646891 5.3423845,6.2836721 6.312,6.522 Z M 11.691,6.388 C 10.548,7.044 9.097,6.751 8.04,7.605 6.9289273,8.2127685 6.9696274,9.8221683 8.11,10.373 c 0.234,0.1 0.462,0.206 0.689,0.014 0.223,-0.167 0.4,-0.162 0.721,-0.012 -1.1036146,0.943419 -1.965302,2.137369 -2.513,3.482 -0.5552556,-1.341908 -1.4197439,-2.533621 -2.523,-3.478 0.2151111,-0.161333 0.5108889,-0.161333 0.726,0 0.6,0.347 1.443,-0.4 1.555,-1 C 7.012,8.2 5.829,7.273 4.783,7.049 4.271,6.928 3.745,6.867 3.233,6.749 0.866,6.266 0.51,3.868 1.669,2.034 c 0.668,4.9 4,3.555 5.332,6.26 1.321,-2.671 4.678,-1.382 5.345,-6.261 0.811,1.416 1.054,3.523 -0.655,4.355 z"
     id="path329"
     style="fill:black;fill-opacity:1"
     sodipodi:nodetypes="cccccccccccccccccccccccccccccccccccccccc" />
  <metadata
     id="metadata406">
    <rdf:RDF>
      <cc:Work
         rdf:about="">
        <dc:title>Anemo</dc:title>
        <cc:license
           rdf:resource="http://creativecommons.org/licenses/by-sa/4.0/" />
        <dc:creator>
          <cc:Agent>
            <dc:title>Rong Bao</dc:title>
          </cc:Agent>
        </dc:creator>
        <dc:publisher>
          <cc:Agent>
            <dc:title>Rong Bao</dc:title>
          </cc:Agent>
        </dc:publisher>
      </cc:Work>
      <cc:License
         rdf:about="http://creativecommons.org/licenses/by-sa/4.0/">
        <cc:permits
           rdf:resource="http://creativecommons.org/ns#Reproduction" />
        <cc:permits
           rdf:resource="http://creativecommons.org/ns#Distribution" />
        <cc:requires
           rdf:resource="http://creativecommons.org/ns#Notice" />
        <cc:requires
           rdf:resource="http://creativecommons.org/ns#Attribution" />
        <cc:permits
           rdf:resource="http://creativecommons.org/ns#DerivativeWorks" />
        <cc:requires
           rdf:resource="http://creativecommons.org/ns#ShareAlike" />
      </cc:License>
    </rdf:RDF>
  </metadata>
</svg>
