<?xml version="1.0" encoding="UTF-8" standalone="no"?>
<svg
   viewBox="0 0 14 13.314"
   version="1.1"
   id="svg345"
   sodipodi:docname="dendro.svg"
   inkscape:version="1.2.2 (732a01da63, 2022-12-09)"
   xmlns:inkscape="http://www.inkscape.org/namespaces/inkscape"
   xmlns:sodipodi="http://sodipodi.sourceforge.net/DTD/sodipodi-0.dtd"
   xmlns="http://www.w3.org/2000/svg"
   xmlns:svg="http://www.w3.org/2000/svg"
   xmlns:rdf="http://www.w3.org/1999/02/22-rdf-syntax-ns#"
   xmlns:cc="http://creativecommons.org/ns#"
   xmlns:dc="http://purl.org/dc/elements/1.1/">
  <title
     id="title2211">Dendro</title>
  <defs
     id="defs349" />
  <sodipodi:namedview
     id="namedview347"
     pagecolor="#505050"
     bordercolor="#ffffff"
     borderopacity="1"
     inkscape:showpageshadow="0"
     inkscape:pageopacity="0"
     inkscape:pagecheckerboard="1"
     inkscape:deskcolor="#505050"
     showgrid="false"
     inkscape:zoom="40.183265"
     inkscape:cx="5.9850786"
     inkscape:cy="6.6445571"
     inkscape:window-width="1366"
     inkscape:window-height="715"
     inkscape:window-x="-8"
     inkscape:window-y="-8"
     inkscape:window-maximized="1"
     inkscape:current-layer="svg345" />
  <path
     d="M 10.956,7.949 C 9.714,7.61 8.811,8.458 7.782,9.014 8.282,8.179 9.395,7.643 9.37,6.548 A 1.122,1.122 0 0 0 8.041,5.379 c 0.741,-1.764 3.98,0.034 2.174,1.958 0.303,0.141 0.624,0.252 0.741,0.612 z m -7.919,0 C 4.279,7.61 5.181,8.458 6.21,9.014 5.71,8.179 4.597,7.643 4.623,6.548 A 1.121,1.121 0 0 1 5.952,5.379 C 5.21,3.615 1.972,5.413 3.778,7.337 3.474,7.478 3.153,7.589 3.037,7.949 Z M 7,11.38 C 6.11,9.815 4.008,9.887 2.989,8.436 0.769,5.889 4.028,2.245 6.5,4.573 7.38,2.579 3.3,2.723 2.431,3.983 2.331,3.274 2.244,2.766 1.469,2.678 1.3,2.692 0.355,2.473 0.452,2.737 c 0.37,1.113 0.5,1.67 1.824,1.4 A 4.167,4.167 0 0 0 1.545,7.276 C 0.825,6.681 0.636,6.927 0,7.46 1.239,8.683 1.412,7.16 1.632,7.593 2.207,10.851 5.976,10.376 7,13.314 8.023,10.378 11.794,10.849 12.368,7.593 12.588,7.164 12.761,8.683 14,7.46 13.364,6.927 13.175,6.681 12.455,7.274 A 4.167,4.167 0 0 0 11.724,4.135 c 1.328,0.272 1.454,-0.285 1.824,-1.4 0.1,-0.264 -0.852,-0.045 -1.015,-0.059 -0.775,0.088 -0.859,0.6 -0.962,1.3 -0.864,-1.26 -4.95,-1.4 -4.07,0.591 C 9.969,2.245 13.235,5.89 11.01,8.437 9.992,9.887 7.89,9.815 7,11.38 M 7.007,0 C 5.986,1.347 5.175,2.309 6.993,3.6 8.792,2.311 8.083,1.485 7.007,0 Z"
     fill="white"
     id="path340"
     style="fill:black;fill-opacity:1" />
  <metadata
     id="metadata2209">
    <rdf:RDF>
      <cc:Work
         rdf:about="">
        <dc:title>Dendro</dc:title>
        <cc:license
           rdf:resource="http://creativecommons.org/licenses/by-sa/4.0/" />
        <dc:creator>
          <cc:Agent>
            <dc:title>Rong Bao</dc:title>
          </cc:Agent>
        </dc:creator>
        <dc:publisher>
          <cc:Agent>
            <dc:title>Rong Bao</dc:title>
          </cc:Agent>
        </dc:publisher>
      </cc:Work>
      <cc:License
         rdf:about="http://creativecommons.org/licenses/by-sa/4.0/">
        <cc:permits
           rdf:resource="http://creativecommons.org/ns#Reproduction" />
        <cc:permits
           rdf:resource="http://creativecommons.org/ns#Distribution" />
        <cc:requires
           rdf:resource="http://creativecommons.org/ns#Notice" />
        <cc:requires
           rdf:resource="http://creativecommons.org/ns#Attribution" />
        <cc:permits
           rdf:resource="http://creativecommons.org/ns#DerivativeWorks" />
        <cc:requires
           rdf:resource="http://creativecommons.org/ns#ShareAlike" />
      </cc:License>
    </rdf:RDF>
  </metadata>
</svg>
