<?xml version="1.0" encoding="UTF-8" standalone="no"?>
<svg
   viewBox="0 0 13.029 14"
   version="1.1"
   id="svg116"
   sodipodi:docname="geo.svg"
   inkscape:version="1.2.2 (732a01da63, 2022-12-09)"
   xmlns:inkscape="http://www.inkscape.org/namespaces/inkscape"
   xmlns:sodipodi="http://sodipodi.sourceforge.net/DTD/sodipodi-0.dtd"
   xmlns="http://www.w3.org/2000/svg"
   xmlns:svg="http://www.w3.org/2000/svg"
   xmlns:rdf="http://www.w3.org/1999/02/22-rdf-syntax-ns#"
   xmlns:cc="http://creativecommons.org/ns#"
   xmlns:dc="http://purl.org/dc/elements/1.1/">
  <title
     id="title2052">Geo</title>
  <defs
     id="defs120" />
  <sodipodi:namedview
     id="namedview118"
     pagecolor="#505050"
     bordercolor="#ffffff"
     borderopacity="1"
     inkscape:showpageshadow="0"
     inkscape:pageopacity="0"
     inkscape:pagecheckerboard="1"
     inkscape:deskcolor="#505050"
     showgrid="false"
     inkscape:zoom="38.214286"
     inkscape:cx="5.4299065"
     inkscape:cy="7.0130841"
     inkscape:window-width="1366"
     inkscape:window-height="715"
     inkscape:window-x="-8"
     inkscape:window-y="-8"
     inkscape:window-maximized="1"
     inkscape:current-layer="svg116" />
  <path
     d="M 6.633,6.009 C 6.133,6.547 5.68,7.05 5.213,7.546 A 0.23,0.23 0 0 0 5.152,7.832 4.5,4.5 0 0 0 6.507,9.551 0.181,0.181 0 0 0 6.671,9.542 C 7.059,9.285 7.456,9.042 7.822,8.754 A 16.081,16.081 0 0 0 9.963,6.761 c 0.181,0.366 0.382,0.7 0.518,1.063 0.2,0.535 0.356,1.088 0.535,1.632 a 0.293,0.293 0 0 1 -0.061,0.286 12.277,12.277 0 0 1 -1.768,1.985 c -0.839,0.755 -1.714,1.47 -2.574,2.2 A 1.2,1.2 0 0 1 6.505,14 C 6.005,13.589 5.485,13.183 4.986,12.757 A 29.249,29.249 0 0 1 2.138,9.983 16.778,16.778 0 0 1 0.043,7.137 0.245,0.245 0 0 1 0.043,6.858 10.138,10.138 0 0 1 1.389,5.1 25.247,25.247 0 0 0 6.547,13.341 12.37,12.37 0 0 0 9.527,8.724 L 9.491,8.694 6.558,11.157 C 6.518,11.125 6.477,11.096 6.441,11.057 A 13.544,13.544 0 0 1 3.879,7.693 0.249,0.249 0 0 1 3.93,7.337 c 0.5,-0.442 1,-0.89 1.5,-1.325 C 5.656,5.818 5.903,5.647 6.166,5.446 Z m 0.228,2.545 c 0.263,-0.2 0.51,-0.372 0.736,-0.566 0.506,-0.435 1,-0.883 1.5,-1.325 A 0.251,0.251 0 0 0 9.148,6.307 13.523,13.523 0 0 0 6.588,2.938 C 6.552,2.904 6.511,2.875 6.472,2.838 L 3.539,5.306 3.5,5.276 A 12.345,12.345 0 0 1 6.483,0.659 25.245,25.245 0 0 1 11.64,8.9 a 10.138,10.138 0 0 0 1.345,-1.758 0.244,0.244 0 0 0 0,-0.279 16.724,16.724 0 0 0 -2.1,-2.846 A 29.136,29.136 0 0 0 8.043,1.243 C 7.545,0.817 7.028,0.411 6.524,0 6.474,0.033 6.442,0.049 6.416,0.071 5.556,0.803 4.682,1.518 3.843,2.271 A 12.23,12.23 0 0 0 2.075,4.258 0.293,0.293 0 0 0 2.013,4.544 c 0.179,0.544 0.334,1.1 0.536,1.632 0.136,0.361 0.336,0.7 0.517,1.063 A 16.2,16.2 0 0 1 5.207,5.246 C 5.573,4.961 5.971,4.715 6.358,4.458 A 0.181,0.181 0 0 1 6.522,4.449 4.5,4.5 0 0 1 7.877,6.168 0.231,0.231 0 0 1 7.817,6.454 c -0.468,0.5 -0.926,1 -1.421,1.537 z"
     id="path111"
     style="fill:black;fill-opacity:1" />
  <metadata
     id="metadata2050">
    <rdf:RDF>
      <cc:Work
         rdf:about="">
        <dc:title>Geo</dc:title>
        <cc:license
           rdf:resource="http://creativecommons.org/licenses/by-sa/4.0/" />
        <dc:creator>
          <cc:Agent>
            <dc:title>Rong Bao</dc:title>
          </cc:Agent>
        </dc:creator>
        <dc:publisher>
          <cc:Agent>
            <dc:title>Rong Bao</dc:title>
          </cc:Agent>
        </dc:publisher>
      </cc:Work>
      <cc:License
         rdf:about="http://creativecommons.org/licenses/by-sa/4.0/">
        <cc:permits
           rdf:resource="http://creativecommons.org/ns#Reproduction" />
        <cc:permits
           rdf:resource="http://creativecommons.org/ns#Distribution" />
        <cc:requires
           rdf:resource="http://creativecommons.org/ns#Notice" />
        <cc:requires
           rdf:resource="http://creativecommons.org/ns#Attribution" />
        <cc:permits
           rdf:resource="http://creativecommons.org/ns#DerivativeWorks" />
        <cc:requires
           rdf:resource="http://creativecommons.org/ns#ShareAlike" />
      </cc:License>
    </rdf:RDF>
  </metadata>
</svg>
