<?xml version="1.0" encoding="UTF-8" standalone="no"?>
<svg
   viewBox="0 0 14 13.95"
   version="1.1"
   id="svg127"
   sodipodi:docname="hydro.svg"
   inkscape:version="1.2.2 (732a01da63, 2022-12-09)"
   xmlns:inkscape="http://www.inkscape.org/namespaces/inkscape"
   xmlns:sodipodi="http://sodipodi.sourceforge.net/DTD/sodipodi-0.dtd"
   xmlns="http://www.w3.org/2000/svg"
   xmlns:svg="http://www.w3.org/2000/svg"
   xmlns:rdf="http://www.w3.org/1999/02/22-rdf-syntax-ns#"
   xmlns:cc="http://creativecommons.org/ns#"
   xmlns:dc="http://purl.org/dc/elements/1.1/">
  <title
     id="title189">Hydro</title>
  <defs
     id="defs131" />
  <sodipodi:namedview
     id="namedview129"
     pagecolor="#505050"
     bordercolor="#ffffff"
     borderopacity="1"
     inkscape:showpageshadow="0"
     inkscape:pageopacity="0"
     inkscape:pagecheckerboard="1"
     inkscape:deskcolor="#505050"
     showgrid="false"
     inkscape:zoom="38.351255"
     inkscape:cx="5.9059345"
     inkscape:cy="6.9880373"
     inkscape:window-width="1366"
     inkscape:window-height="715"
     inkscape:window-x="-8"
     inkscape:window-y="-8"
     inkscape:window-maximized="1"
     inkscape:current-layer="svg127" />
  <path
     d="m 2.922,12.219 c 0.108,0.055 0.181,0.092 0.253,0.13 A 7.943,7.943 0 0 0 7.066,13.312 3.753,3.753 0 0 0 7.552,5.848 3.6,3.6 0 0 0 5.861,5.98 0.938,0.938 0 0 1 5.145,4.248 4.3,4.3 0 0 1 6.626,3.882 4.912,4.912 0 0 1 11.674,7.328 4.933,4.933 0 0 1 9.157,13.092 C 13.375,11.549 13.88,5.283 9.969,3.075 A 5.342,5.342 0 0 0 6.532,2.246 5.506,5.506 0 0 0 2.883,4.021 6.606,6.606 0 0 0 2.466,4.545 0.873,0.873 0 0 1 1.539,4.882 0.929,0.929 0 0 1 0.758,4.244 0.881,0.881 0 0 1 0.858,3.56 6.158,6.158 0 0 1 2.221,1.839 7.091,7.091 0 0 1 6.135,0.055 6.933,6.933 0 0 1 12.983,3.414 c 2.683,4.1 -0.263,9.987 -5.094,10.472 A 6.838,6.838 0 0 1 4.648,13.543 3.994,3.994 0 0 1 2.922,12.219 Z M 8.438,12.1 a 2.044,2.044 0 0 1 -2.35,0.064 1.5,1.5 0 0 1 -0.007,-2.613 0.949,0.949 0 0 1 1.433,0.505 c 0.77,2.06 2.637,0.147 1.424,-1.246 A 2.385,2.385 0 0 0 6.768,7.86 2.486,2.486 0 1 0 7.552,12.751 2.393,2.393 0 0 0 9.073,11.6 c -0.211,0.166 -0.41,0.351 -0.635,0.5 z M 2.21,9.495 A 0.663,0.663 0 1 0 2.873,10.158 0.663,0.663 0 0 0 2.21,9.495 Z M 0.958,6.107 A 0.958,0.958 0 1 0 1.915,7.064 0.958,0.958 0 0 0 0.958,6.107 Z"
     fill="white"
     id="path122"
     style="fill:black;fill-opacity:1" />
  <metadata
     id="metadata187">
    <rdf:RDF>
      <cc:Work
         rdf:about="">
        <dc:title>Hydro</dc:title>
        <cc:license
           rdf:resource="http://creativecommons.org/licenses/by-sa/4.0/" />
        <dc:creator>
          <cc:Agent>
            <dc:title>Rong Bao</dc:title>
          </cc:Agent>
        </dc:creator>
        <dc:publisher>
          <cc:Agent>
            <dc:title>Rong Bao</dc:title>
          </cc:Agent>
        </dc:publisher>
      </cc:Work>
      <cc:License
         rdf:about="http://creativecommons.org/licenses/by-sa/4.0/">
        <cc:permits
           rdf:resource="http://creativecommons.org/ns#Reproduction" />
        <cc:permits
           rdf:resource="http://creativecommons.org/ns#Distribution" />
        <cc:requires
           rdf:resource="http://creativecommons.org/ns#Notice" />
        <cc:requires
           rdf:resource="http://creativecommons.org/ns#Attribution" />
        <cc:permits
           rdf:resource="http://creativecommons.org/ns#DerivativeWorks" />
        <cc:requires
           rdf:resource="http://creativecommons.org/ns#ShareAlike" />
      </cc:License>
    </rdf:RDF>
  </metadata>
</svg>
