<?xml version="1.0" encoding="UTF-8" standalone="no"?>
<svg
   viewBox="0 0 11.479 14"
   version="1.1"
   id="svg94"
   sodipodi:docname="pyro.svg"
   inkscape:version="1.2.2 (732a01da63, 2022-12-09)"
   xmlns:inkscape="http://www.inkscape.org/namespaces/inkscape"
   xmlns:sodipodi="http://sodipodi.sourceforge.net/DTD/sodipodi-0.dtd"
   xmlns="http://www.w3.org/2000/svg"
   xmlns:svg="http://www.w3.org/2000/svg"
   xmlns:rdf="http://www.w3.org/1999/02/22-rdf-syntax-ns#"
   xmlns:cc="http://creativecommons.org/ns#"
   xmlns:dc="http://purl.org/dc/elements/1.1/">
  <title
     id="title5612">Pyro</title>
  <defs
     id="defs98" />
  <sodipodi:namedview
     id="namedview96"
     pagecolor="#505050"
     bordercolor="#ffffff"
     borderopacity="1"
     inkscape:showpageshadow="0"
     inkscape:pageopacity="0"
     inkscape:pagecheckerboard="1"
     inkscape:deskcolor="#505050"
     showgrid="false"
     inkscape:zoom="38.214286"
     inkscape:cx="4.6448598"
     inkscape:cy="7.0130841"
     inkscape:window-width="1366"
     inkscape:window-height="715"
     inkscape:window-x="-8"
     inkscape:window-y="-8"
     inkscape:window-maximized="1"
     inkscape:current-layer="svg94" />
  <path
     d="M 5.853,14 C 4.311,12.53 2.374,11.75 0.692,10.523 -0.779,9.423 0.424,7.476 1.278,6.36 A 17.969,17.969 0 0 0 3.031,3.838 C 3.024,5.438 4.591,5.99 5.812,6.547 3.509,6.412 1.548,9.1 3.385,10.92 1.512,10.147 0.685,8.465 2.085,6.75 A 2.113,2.113 0 0 0 1.55,10.412 c 1.332,0.9 2.865,1.483 4.153,2.461 A 0.2,0.2 0 0 0 5.89,12.892 C 7.13,12 8.5,11.315 9.811,10.543 11.465,9.656 11.281,7.77 9.657,6.96 11.112,9.78 8.444,11.902 5.757,11.705 2.832,11.491 2.676,8.531 5.131,9 a 1.39,1.39 0 0 0 -0.682,1.5 c 0.526,1.495 2.954,0.974 3.81,0.031 C 9.354,9.504 8.586,7.5 7.28,6.931 5.788,6.231 2.837,5.404 3.98,3.194 4.676,2.109 5.49,1.385 5.617,0 6.05,0.581 7.06,1.719 6.857,2.452 6.617,3.172 5.772,3.434 5.509,4.162 A 1.334,1.334 0 0 0 6.087,5.986 C 5.069,4.896 6.177,3.577 7.237,3.005 A 3.3,3.3 0 0 0 8.373,7.061 C 7.648,5.461 7.026,5.421 8.245,3.653 a 4.575,4.575 0 0 0 1.806,2.766 c 2.057,1.807 1.9,3.731 -0.521,5.067 A 16.689,16.689 0 0 0 5.853,14 Z M 6.394,10.5 C 10.185,9.076 5.44,5.335 4.03,8.493 5.446,7.684 7.387,8.92 6.394,10.5 Z"
     id="path89"
     style="fill:black;fill-opacity:1" />
  <metadata
     id="metadata5610">
    <rdf:RDF>
      <cc:Work
         rdf:about="">
        <cc:license
           rdf:resource="http://creativecommons.org/licenses/by-sa/4.0/" />
        <dc:creator>
          <cc:Agent>
            <dc:title>Rong Bao</dc:title>
          </cc:Agent>
        </dc:creator>
        <dc:publisher>
          <cc:Agent>
            <dc:title>Rong Bao</dc:title>
          </cc:Agent>
        </dc:publisher>
        <dc:title>Pyro</dc:title>
      </cc:Work>
      <cc:License
         rdf:about="http://creativecommons.org/licenses/by-sa/4.0/">
        <cc:permits
           rdf:resource="http://creativecommons.org/ns#Reproduction" />
        <cc:permits
           rdf:resource="http://creativecommons.org/ns#Distribution" />
        <cc:requires
           rdf:resource="http://creativecommons.org/ns#Notice" />
        <cc:requires
           rdf:resource="http://creativecommons.org/ns#Attribution" />
        <cc:permits
           rdf:resource="http://creativecommons.org/ns#DerivativeWorks" />
        <cc:requires
           rdf:resource="http://creativecommons.org/ns#ShareAlike" />
      </cc:License>
    </rdf:RDF>
  </metadata>
</svg>
