<?xml version="1.0" encoding="UTF-8" standalone="no"?>
<svg
   width="81.079872"
   height="76.303947"
   viewBox="0 0 21.452383 20.188754"
   version="1.1"
   id="svg8584"
   xml:space="preserve"
   inkscape:version="1.2.2 (732a01da63, 2022-12-09)"
   sodipodi:docname="wildcard.svg"
   xmlns:inkscape="http://www.inkscape.org/namespaces/inkscape"
   xmlns:sodipodi="http://sodipodi.sourceforge.net/DTD/sodipodi-0.dtd"
   xmlns="http://www.w3.org/2000/svg"
   xmlns:svg="http://www.w3.org/2000/svg"
   xmlns:rdf="http://www.w3.org/1999/02/22-rdf-syntax-ns#"
   xmlns:cc="http://creativecommons.org/ns#"
   xmlns:dc="http://purl.org/dc/elements/1.1/">
	<title
   id="title9888">Wildcard</title>
	<sodipodi:namedview
   id="namedview8586"
   pagecolor="#505050"
   bordercolor="#ffffff"
   borderopacity="1"
   inkscape:showpageshadow="0"
   inkscape:pageopacity="0"
   inkscape:pagecheckerboard="1"
   inkscape:deskcolor="#505050"
   inkscape:document-units="mm"
   showgrid="false"
   inkscape:zoom="6.6185195"
   inkscape:cx="17.753215"
   inkscape:cy="34.448792"
   inkscape:window-width="1366"
   inkscape:window-height="715"
   inkscape:window-x="-8"
   inkscape:window-y="-8"
   inkscape:window-maximized="1"
   inkscape:current-layer="svg8584"
   showguides="true">
	<inkscape:grid
   type="xygrid"
   id="grid20629"
   originx="-2.2243362e-09"
   originy="4.94624e-08" />
	</sodipodi:namedview>
	<defs
   id="defs8581" />
	<metadata
   id="metadata9886">
	<rdf:RDF>
	<cc:Work
   rdf:about="">
	<dc:title>Wildcard</dc:title>
	<cc:license
   rdf:resource="http://creativecommons.org/licenses/by-sa/4.0/" /><dc:creator><cc:Agent><dc:title>Rong Bao</dc:title>
	</cc:Agent></dc:creator>
	<dc:publisher>
	<cc:Agent>
	<dc:title>Rong Bao</dc:title>
	</cc:Agent>
	</dc:publisher>
	</cc:Work>
	
	<cc:License
   rdf:about="http://creativecommons.org/licenses/by-sa/4.0/"><cc:permits
     rdf:resource="http://creativecommons.org/ns#Reproduction" /><cc:permits
     rdf:resource="http://creativecommons.org/ns#Distribution" /><cc:requires
     rdf:resource="http://creativecommons.org/ns#Notice" /><cc:requires
     rdf:resource="http://creativecommons.org/ns#Attribution" /><cc:permits
     rdf:resource="http://creativecommons.org/ns#DerivativeWorks" /><cc:requires
     rdf:resource="http://creativecommons.org/ns#ShareAlike" /></cc:License></rdf:RDF>
	</metadata>
	<path
   d="M 7.91271,12.608162 7.892,10.217093 C 14.572403,11.709982 17.931634,7.427493 19.187485,3.0799224 17.648625,2.5248462 16.155282,2.1816398 13.406621,2.7403366 L 11.543052,1.3315874 C 15.570935,-1.3453934 20.372264,0.6188533 21.423169,1.9754562 22.094365,10.919678 11.007742,14.12993 7.91271,12.608162 Z"
   id="path20575" />
		<path
   d="m 7.9374359,3.172 2.0810811,1.177599 c -4.6330809,5.038954 -2.603952,10.089378 0.533229,13.350762 1.25014,-1.055154 2.294037,-2.176824 3.184522,-4.836582 l 2.151797,-0.909524 c 0.304392,4.82674 -3.79736,8.002689 -5.497665,8.234498 C 2.3088786,16.297915 5.0720301,5.091492 7.9374359,3.172 Z"
   id="path20571"
   inkscape:label="path20572" />
			<path
   d="M 16.173056,8.0141384 14.112684,9.227609 C 12.065363,2.6957654 6.6770036,1.9278304 2.2839716,3.0140174 c 0.288721,1.61023 0.738167,3.075106 2.596342,5.176168 L 4.5920866,10.508459 C 0.25981082,8.3586994 -0.43976578,3.2185034 0.20963432,1.6300914 7.6199594,-3.4232924 15.94343,4.5728784 16.173056,8.0141384 Z"
   id="path20567" />
				<path
   d="M 11.781773,8.0193865 A 1.2073865,1.2073865 0 0 1 10.574387,9.226773 1.2073865,1.2073865 0 0 1 9.367,8.0193865 1.2073865,1.2073865 0 0 1 10.574387,6.812 1.2073865,1.2073865 0 0 1 11.781773,8.0193865 Z"
   id="path20563"
   inkscape:label="path20563" />
				</svg>
