<?xml version="1.0" encoding="UTF-8" standalone="no"?>
<svg
   width="100"
   height="100"
   viewBox="0 0 49.627 48.544"
   version="1.1"
   id="svg3052"
   sodipodi:docname="anemo.svg"
   inkscape:version="1.2 (dc2aedaf03, 2022-05-15)"
   xmlns:inkscape="http://www.inkscape.org/namespaces/inkscape"
   xmlns:sodipodi="http://sodipodi.sourceforge.net/DTD/sodipodi-0.dtd"
   xmlns="http://www.w3.org/2000/svg"
   xmlns:svg="http://www.w3.org/2000/svg"
   xmlns:rdf="http://www.w3.org/1999/02/22-rdf-syntax-ns#"
   xmlns:cc="http://creativecommons.org/ns#"
   xmlns:dc="http://purl.org/dc/elements/1.1/">
  <title
     id="title2839">Anemo</title>
  <sodipodi:namedview
     id="namedview2835"
     pagecolor="#505050"
     bordercolor="#ffffff"
     borderopacity="1"
     inkscape:showpageshadow="0"
     inkscape:pageopacity="0"
     inkscape:pagecheckerboard="1"
     inkscape:deskcolor="#505050"
     showgrid="false"
     inkscape:zoom="3.7830213"
     inkscape:cx="25.244373"
     inkscape:cy="49.43139"
     inkscape:window-width="1366"
     inkscape:window-height="715"
     inkscape:window-x="-8"
     inkscape:window-y="-8"
     inkscape:window-maximized="1"
     inkscape:current-layer="group_15" />
  <defs
     id="defs2825" />
  <g
     id="group_13"
     data-name="group 13">
    <path
       id="trace_13"
       data-name="trace 13"
       d="m 16.136,40.883 a 11.064,11.064 0 0 1 -2.293,-3.227 9.125,9.125 0 0 1 -0.576,-4.788 18.08,18.08 0 0 1 1.789,-5.734 c 0.094,-0.182 0.175,-0.446 0.387,-0.42 0.264,0.032 0.166,0.327 0.19,0.511 a 18.526,18.526 0 0 0 2.7,7.822 c 0.118,0.182 0.181,0.416 0.414,0.507 l 0.007,0.007 a 6.867,6.867 0 0 0 1.626,2.163 1.922,1.922 0 0 0 0.714,0.693 2.285,2.285 0 0 0 1.06,0.809 l 0.007,0.007 a 4.5,4.5 0 0 0 1.622,1.076 l 0.16,0.106 a 3.369,3.369 0 0 0 1.315,0.771 1.759,1.759 0 0 0 0.775,0.4 0.267,0.267 0 0 0 0.34,0.2 l 0.2,0.076 a 0.27,0.27 0 0 0 0.341,0.2 l 0.2,0.075 a 0.269,0.269 0 0 0 0.34,0.2 l 0.2,0.077 a 3.16,3.16 0 0 0 1.262,0.7 l 0.245,0.107 a 6.01,6.01 0 0 0 1.223,0.819 9.209,9.209 0 0 1 3.771,4.154 c 0.042,0.107 0.075,0.23 0.213,0.223 0.165,-0.008 0.206,-0.153 0.252,-0.282 a 6.384,6.384 0 0 1 1.58,-2.276 20.628,20.628 0 0 1 5.705,-3.752 23.086,23.086 0 0 0 5.853,-3.659 18.287,18.287 0 0 0 5.424,-11 c 0.026,-0.193 -0.048,-0.484 0.182,-0.536 0.287,-0.064 0.316,0.251 0.421,0.443 a 15.414,15.414 0 0 1 1.515,4.419 10.141,10.141 0 0 1 -0.088,5.311 c -0.953,2.857 -3.107,4.455 -5.765,5.559 -1.955,0.812 -4.062,0.9 -6.09,1.364 a 13.449,13.449 0 0 0 -4.606,1.756 7.552,7.552 0 0 0 -3.491,4.674 5.053,5.053 0 0 0 3.456,5.826 1.887,1.887 0 0 0 2.14,-0.2 1.852,1.852 0 0 1 1.685,-0.284 c 0.2,0.042 0.447,0.063 0.518,0.271 0.081,0.234 -0.176,0.343 -0.307,0.482 a 48.278,48.278 0 0 0 -3.99,4.267 45.8,45.8 0 0 0 -3.543,5.942 c -0.237,0.447 -0.358,1.241 -0.779,1.242 -0.523,0 -0.615,-0.793 -0.861,-1.255 -1.634,-3.061 -3.27,-6.116 -5.856,-8.525 -0.613,-0.571 -1.173,-1.2 -1.776,-1.781 -0.333,-0.322 -0.217,-0.483 0.152,-0.609 a 1.9,1.9 0 0 1 1.877,0.251 1.9,1.9 0 0 0 1.96,0.22 4.96,4.96 0 0 0 3.178,-7.093 c -1.824,-3.653 -5.172,-4.9 -8.933,-5.415 l -0.4,-0.042 a 2.593,2.593 0 0 0 -1.368,-0.23 l -0.268,-0.032 c -0.82,-0.232 -1.647,-0.443 -2.458,-0.7 a 16.059,16.059 0 0 1 -3.394,-1.758 l -0.157,-0.13 M 34.414,63.7 c 0.173,0 0.209,-0.133 0.273,-0.254 A 19.335,19.335 0 0 1 36.281,60.7 c 0.219,-0.291 0.066,-0.47 -0.193,-0.578 -0.594,-0.248 -1.015,-0.868 -1.587,-0.993 -0.629,-0.137 -0.967,0.709 -1.567,0.9 -0.043,0.014 -0.084,0.035 -0.125,0.052 -0.376,0.157 -0.459,0.381 -0.217,0.737 a 18.9,18.9 0 0 1 1.54,2.621 c 0.06,0.129 0.124,0.24 0.282,0.257 m -3.545,-5.391 a 3.271,3.271 0 0 0 2.9,-0.569 c 0.481,-0.412 0.762,-0.389 1.237,0.013 A 2.747,2.747 0 0 0 37.87,58.23 0.467,0.467 0 0 0 37.802,58.118 0.544,0.544 0 0 0 37.637,58.001 5.1,5.1 0 0 1 34.62,55.429 c -0.126,-0.263 -0.323,-0.246 -0.445,0.011 a 5.056,5.056 0 0 1 -2.937,2.565 c -0.1,0.037 -0.169,0.134 -0.369,0.3"
       transform="translate(-9.582,-19.438)"
       fill="#000000" />
    <path
       id="trace_14"
       data-name="trace 14"
       d="m 17.473,73.889 -0.27,0.039 a 18.888,18.888 0 0 0 -3.6,1.544 l -0.35,0.1 A 32.628,32.628 0 0 1 9.753,76.603 7.482,7.482 0 0 1 1.931,73.248 11,11 0 0 1 0.49,63.706 c 0.044,-0.16 0.016,-0.414 0.238,-0.445 0.242,-0.033 0.313,0.207 0.424,0.374 a 24.833,24.833 0 0 0 3.648,4.623 1.066,1.066 0 0 0 0.485,0.35 l 0.007,0.006 a 1.29,1.29 0 0 0 0.739,0.614 l 0.161,0.134 a 0.618,0.618 0 0 0 0.52,0.394 0.064,0.064 0 0 0 0.089,0.048 0.267,0.267 0 0 0 0.32,0.22 0.067,0.067 0 0 0 0.091,0.051 c 0.04,0.147 0.165,0.2 0.284,0.267 a 11.722,11.722 0 0 0 7.123,1.258 l 1.085,0.055 a 2.132,2.132 0 0 0 0.959,0.217 l 0.266,0.057 c 0.687,0.287 1.392,0.536 2.058,0.867 2.5,1.242 3.631,3.394 3.111,5.859 a 3.32,3.32 0 0 1 -3.719,2.819 2.106,2.106 0 0 1 -1.578,-0.952 c -0.407,-0.664 -0.178,-1.141 0.584,-1.194 a 6.033,6.033 0 0 0 1.522,-0.341 2.454,2.454 0 0 0 1.767,-3.065 2.738,2.738 0 0 0 -3.2,-2.037"
       transform="translate(0,-46.033)"
       fill="#000000" />
    <path
       id="trace_15"
       data-name="trace 15"
       d="m 41.569,17.674 a 2.061,2.061 0 0 0 0.59,0.9 0.268,0.268 0 0 0 0.232,0.316 3.166,3.166 0 0 0 0.841,1.047 0.259,0.259 0 0 0 0.261,0.284 v 0 a 0.265,0.265 0 0 0 0.271,0.28 v 0 a 0.267,0.267 0 0 0 0.276,0.277 v 0 a 1.2,1.2 0 0 0 0.7,0.654 0.636,0.636 0 0 0 0.359,0.3 c 0.185,0.46 0.841,0.5 0.994,1.134 l -1.151,-0.344 c -1.743,-0.521 -3.412,-1.244 -5.11,-1.886 l -0.163,-0.1 a 0.42,0.42 0 0 0 -0.38,-0.183 l -0.161,-0.1 a 1.459,1.459 0 0 0 -0.792,-0.447 l -0.012,-0.045 h -0.047 a 1.4,1.4 0 0 0 -0.764,-0.492 v 0 a 34.653,34.653 0 0 1 -2.714,-2.588 v 0 A 6.488,6.488 0 0 0 34,15.351 16.98,16.98 0 0 1 32.847,12.191 c -0.008,-0.091 -0.016,-0.182 -0.024,-0.273 0,-0.269 0.013,-0.539 -0.008,-0.807 -0.38,-5.076 2.258,-8.639 6.497,-10.747 0.3,-0.152 0.71,-0.541 0.964,-0.272 0.254,0.269 -0.194,0.623 -0.327,0.94 A 9.705,9.705 0 0 0 38.93,4.155 l -0.034,0.274 a 2.006,2.006 0 0 0 -0.245,1.227 c -0.008,0.09 -0.016,0.181 -0.025,0.271 a 5.755,5.755 0 0 0 -0.007,2.846 q 0.016,0.2 0.031,0.406 a 2.294,2.294 0 0 0 0.24,1.364 q 0.02,0.134 0.039,0.268 a 10.7,10.7 0 0 0 0.975,3.366 5.289,5.289 0 0 0 0.654,1.671 0.268,0.268 0 0 0 0.191,0.334 c 0.026,0.07 0.052,0.141 0.077,0.212 a 0.266,0.266 0 0 0 0.2,0.331 0.373,0.373 0 0 0 0.186,0.354 0.693,0.693 0 0 0 0.36,0.6"
       transform="translate(-23.855)"
       fill="#000000" />
    <path
       id="trace_16"
       data-name="trace 16"
       d="m 119.246,75.455 a 12.143,12.143 0 0 1 -3.229,1.344 9.5,9.5 0 0 1 -5.382,-0.721 c -1.506,-0.554 -2.944,-1.29 -4.437,-1.883 a 2.847,2.847 0 0 0 -3.983,2.812 2.386,2.386 0 0 0 1.9,2.2 6.6,6.6 0 0 0 1.668,0.309 c 0.463,0 0.572,0.265 0.521,0.673 a 1.891,1.891 0 0 1 -1.738,1.472 3.389,3.389 0 0 1 -3.733,-2.9 c -0.437,-2.609 0.945,-4.888 3.672,-6.047 a 10.845,10.845 0 0 1 5.039,-0.894 10.877,10.877 0 0 0 8.4,-3.137 28.467,28.467 0 0 0 3.789,-4.7 c 0.135,-0.193 0.223,-0.521 0.512,-0.458 0.231,0.051 0.234,0.37 0.282,0.576 0.159,0.681 0.279,1.371 0.414,2.058 q 0,0.958 0,1.915 c -0.148,0.729 -0.273,1.464 -0.449,2.187 a 12.48,12.48 0 0 1 -1.853,3.814 l -0.026,0.024 a 6.477,6.477 0 0 0 -1.176,1.2 l -0.2,0.161"
       transform="translate(-73.322,-46.222)"
       fill="#000000" />
    <path
       id="trace_17"
       data-name="trace 17"
       d="m 113.177,4.992 a 11.692,11.692 0 0 1 1.285,7.1 10.273,10.273 0 0 1 -4.235,6.937 19.413,19.413 0 0 1 -6.61,3.233 c -0.519,0.162 -1.027,0.359 -1.548,0.508 -0.195,0.056 -0.473,0.251 -0.606,-0.008 -0.114,-0.222 0.19,-0.324 0.333,-0.444 a 18.574,18.574 0 0 0 4.854,-6.053 18.744,18.744 0 0 0 2.074,-10.584 13.21,13.21 0 0 0 -1.46,-4.781 c -0.109,-0.2 -0.389,-0.443 -0.168,-0.649 0.2,-0.19 0.447,0.093 0.671,0.175 a 7.988,7.988 0 0 0 1.219,0.562 0.07,0.07 0 0 0 0.1,0.049 30.1,30.1 0 0 1 3.014,2.463 l 0.2,0.233 a 2.121,2.121 0 0 0 0.616,0.844 L 112.91,4.571 a 0.542,0.542 0 0 0 0.271,0.42 z"
       transform="translate(-73.817,-0.137)"
       fill="#000000" />
  </g>
  <metadata
     id="metadata2837">
    <rdf:RDF>
      <cc:Work
         rdf:about="">
        <dc:title>Anemo</dc:title>
        <cc:license
           rdf:resource="http://creativecommons.org/licenses/by-sa/4.0/" />
        <dc:publisher>
          <cc:Agent>
            <dc:title>Clement Champouillon</dc:title>
          </cc:Agent>
        </dc:publisher>
        <dc:contributor>
          <cc:Agent>
            <dc:title>Clement Champouillon, Rong Bao</dc:title>
          </cc:Agent>
        </dc:contributor>
        <dc:creator>
          <cc:Agent>
            <dc:title>COGNOSPHERE PTE. LTD.</dc:title>
          </cc:Agent>
        </dc:creator>
      </cc:Work>
      <cc:License
         rdf:about="http://creativecommons.org/licenses/by-sa/4.0/">
        <cc:permits
           rdf:resource="http://creativecommons.org/ns#Reproduction" />
        <cc:permits
           rdf:resource="http://creativecommons.org/ns#Distribution" />
        <cc:requires
           rdf:resource="http://creativecommons.org/ns#Notice" />
        <cc:requires
           rdf:resource="http://creativecommons.org/ns#Attribution" />
        <cc:permits
           rdf:resource="http://creativecommons.org/ns#DerivativeWorks" />
        <cc:requires
           rdf:resource="http://creativecommons.org/ns#ShareAlike" />
      </cc:License>
    </rdf:RDF>
  </metadata>
</svg>
