<?xml version="1.0" encoding="UTF-8" standalone="no"?>
<svg
   width="100"
   height="100"
   viewBox="0 0 36.1 41.686"
   version="1.1"
   id="svg3047"
   sodipodi:docname="cyro.svg"
   inkscape:version="1.2 (dc2aedaf03, 2022-05-15)"
   xmlns:inkscape="http://www.inkscape.org/namespaces/inkscape"
   xmlns:sodipodi="http://sodipodi.sourceforge.net/DTD/sodipodi-0.dtd"
   xmlns="http://www.w3.org/2000/svg"
   xmlns:svg="http://www.w3.org/2000/svg"
   xmlns:rdf="http://www.w3.org/1999/02/22-rdf-syntax-ns#"
   xmlns:cc="http://creativecommons.org/ns#"
   xmlns:dc="http://purl.org/dc/elements/1.1/">
  <title
     id="title3053">Cyro</title>
  <sodipodi:namedview
     id="namedview3049"
     pagecolor="#505050"
     bordercolor="#ffffff"
     borderopacity="1"
     inkscape:showpageshadow="0"
     inkscape:pageopacity="0"
     inkscape:pagecheckerboard="1"
     inkscape:deskcolor="#505050"
     showgrid="false"
     inkscape:zoom="5.35"
     inkscape:cx="41.588785"
     inkscape:cy="51.028037"
     inkscape:window-width="1366"
     inkscape:window-height="715"
     inkscape:window-x="-8"
     inkscape:window-y="-8"
     inkscape:window-maximized="1"
     inkscape:current-layer="svg3047" />
  <defs
     id="defs3035" />
  <g
     id="group_22"
     data-name="group 22">
    <path
       id="trace_25"
       data-name="trace 25"
       d="m 103.67,45.1 1.467,-0.021 c 0,0.108 -0.005,0.216 -0.008,0.324 l -0.076,0.117 a 47.272,47.272 0 0 0 -3.556,5.529 c -0.644,1.2 -1.265,2.406 -1.931,3.674 a 1.654,1.654 0 0 1 -0.345,-1.1 c 0,-0.465 -0.221,-0.609 -0.654,-0.652 a 19.485,19.485 0 0 0 -7.7,0.879 c -0.417,0.128 -0.828,0.274 -1.242,0.409 a 0.743,0.743 0 0 1 -0.168,0.013 c -0.075,-0.236 0.122,-0.3 0.238,-0.4 a 20.6,20.6 0 0 0 5.237,-6.591 c 0.244,-0.49 0.537,-0.923 -0.194,-1.252 -0.156,-0.07 -0.18,-0.34 -0.409,-0.357 a 0.156,0.156 0 0 0 -0.145,-0.133 0.294,0.294 0 0 1 0.128,-0.415 1.707,1.707 0 0 0 0.9,0.082 0.707,0.707 0 0 0 0.586,0.029 40.44,40.44 0 0 0 5.8,0.015 5.837,5.837 0 0 0 2.068,-0.16 m -10.734,7.181 a 19.86,19.86 0 0 1 5.9,-1.271 0.337,0.337 0 0 0 0.358,-0.354 7.54,7.54 0 0 1 0.482,-1.983 c 0.117,-0.315 0.026,-0.455 -0.29,-0.515 a 6.992,6.992 0 0 1 -1.745,-0.5 c -0.4,-0.194 -0.64,-0.095 -0.881,0.286 a 17.486,17.486 0 0 1 -3.12,3.6 c -0.235,0.212 -0.542,0.355 -0.7,0.73"
       transform="translate(-69.038,-34.797)"
       fill="#000000" />
    <path
       id="trace_26"
       data-name="trace 26"
       d="m 60.383,103.774 a 6.921,6.921 0 0 1 0.45,1.779 20.76,20.76 0 0 0 2.891,6.515 c 0.313,0.464 0.6,0.613 1.1,0.337 0.255,-0.139 0.633,-0.381 0.828,-0.151 0.222,0.262 -0.165,0.532 -0.32,0.764 a 63.335,63.335 0 0 0 -4.653,8.337 c -0.081,0.172 -0.124,0.41 -0.328,0.43 -0.235,0.023 -0.265,-0.249 -0.338,-0.4 a 63.281,63.281 0 0 0 -5.022,-8.843 c -0.083,-0.12 -0.234,-0.272 -0.138,-0.4 0.128,-0.174 0.307,-0.024 0.462,0.031 1.3,0.458 1.285,0.448 2.031,-0.712 a 19.751,19.751 0 0 0 2.809,-7.332 c 0.022,-0.123 0,-0.275 0.224,-0.348 m -0.1,3.979 a 18.322,18.322 0 0 1 -1.833,5.7 c -0.117,0.226 0.018,0.343 0.179,0.469 a 8.031,8.031 0 0 1 1.427,1.382 c 0.232,0.3 0.393,0.256 0.612,-0.02 a 6.539,6.539 0 0 1 1.306,-1.263 0.545,0.545 0 0 0 0.167,-0.818 18.646,18.646 0 0 1 -1.337,-3.555 7.082,7.082 0 0 0 -0.52,-1.891"
       transform="translate(-42.318,-80.1)"
       fill="#000000" />
    <path
       id="trace_27"
       data-name="trace 27"
       d="M 57.038,72.073 55.684,70.808 A 3.237,3.237 0 0 0 55.269,70.42 c -1.175,-0.758 -1.17,-1.87 -0.95,-3.061 0.065,-0.354 0.208,-0.46 0.544,-0.3 0.461,0.223 0.929,0.431 1.4,0.638 a 0.956,0.956 0 0 1 0.515,0.707 c 0.271,0.988 0.529,1.978 0.706,2.988 0.017,0.1 0.036,0.187 0.146,0.23 0.205,-0.093 0.206,-0.3 0.239,-0.48 0.18,-0.971 0.453,-1.919 0.7,-2.874 a 0.837,0.837 0 0 1 0.526,-0.616 c 0.455,-0.19 0.9,-0.4 1.349,-0.606 0.3,-0.136 0.477,-0.07 0.471,0.292 a 0.674,0.674 0 0 0 0.022,0.226 2.529,2.529 0 0 1 -1.092,3.043 8.316,8.316 0 0 0 -1.5,1.562 c 0.824,-0.248 1.647,-0.5 2.472,-0.742 0.345,-0.1 0.7,-0.186 1.043,-0.285 a 0.692,0.692 0 0 1 0.636,0.156 c 0.412,0.3 0.821,0.613 1.245,0.9 0.326,0.219 0.3,0.387 -0.014,0.588 a 6.623,6.623 0 0 0 -0.97,0.694 1.268,1.268 0 0 1 -1.417,0.23 c -0.827,-0.274 -1.668,-0.509 -2.506,-0.75 -0.152,-0.043 -0.313,-0.138 -0.492,-0.039 0.04,0.238 0.252,0.324 0.395,0.462 0.382,0.369 0.794,0.709 1.164,1.09 1.481,1.521 1.308,0.865 1.032,3.162 -0.043,0.353 -0.189,0.424 -0.486,0.29 -0.5,-0.227 -1,-0.457 -1.5,-0.686 a 0.684,0.684 0 0 1 -0.37,-0.473 c -0.271,-0.89 -0.485,-1.794 -0.678,-2.7 a 1.4,1.4 0 0 0 -0.325,-0.8 c -0.185,0.775 -0.356,1.5 -0.53,2.22 -0.089,0.368 -0.187,0.735 -0.274,1.1 a 1.025,1.025 0 0 1 -0.658,0.788 c -0.441,0.172 -0.866,0.385 -1.3,0.581 -0.283,0.129 -0.446,0.028 -0.472,-0.27 -0.052,-0.605 -0.1,-1.212 -0.129,-1.819 -0.014,-0.277 0.215,-0.431 0.374,-0.615 0.719,-0.83 1.439,-1.659 2.22,-2.442 -0.375,0.045 -0.8,0.319 -1.253,0.428 -0.645,0.154 -1.276,0.362 -1.914,0.547 A 0.967,0.967 0 0 1 52.68,73.611 c -0.365,-0.3 -0.759,-0.569 -1.151,-0.836 -0.281,-0.19 -0.31,-0.353 -0.014,-0.555 0.455,-0.31 0.91,-0.621 1.346,-0.954 A 0.822,0.822 0 0 1 53.67,71.2 q 1.657,0.473 3.315,0.941 z"
       transform="translate(-39.599,-51.704)"
       fill="#000000" />
    <path
       id="trace_28"
       data-name="trace 28"
       d="m 61.1,0.148 0.068,0.192 a 0.216,0.216 0 0 0 0.157,0.273 L 61.387,0.8 a 5.219,5.219 0 0 0 0.7,1.453 v 0.029 l 0.027,0.012 a 0.585,0.585 0 0 0 0.2,0.417 V 2.74 l 0.026,0.012 a 6.486,6.486 0 0 0 0.882,1.676 l 0.095,0.137 a 14.925,14.925 0 0 0 1.883,3.119 0.052,0.052 0 0 0 0.04,0.073 0.611,0.611 0 0 0 0.3,0.48 V 8.231 a 1.313,1.313 0 0 0 0.456,0.7 L 65.991,8.925 c 0,0.2 0.3,0.381 0.159,0.551 -0.182,0.213 -0.4,-0.044 -0.605,-0.1 C 65.34,9.32 65.168,9.218 64.974,9.16 64.78,9.102 64.559,9.019 64.498,9.338 a 0.059,0.059 0 0 0 -0.065,0.067 4.188,4.188 0 0 0 -1,1.555 0.069,0.069 0 0 0 -0.044,0.089 10.126,10.126 0 0 0 -1.353,2.788 20.25,20.25 0 0 0 -0.987,3.619 0.565,0.565 0 0 1 -0.3,0.516 c -0.111,-0.507 -0.212,-1 -0.327,-1.482 A 19.672,19.672 0 0 0 57.34,9.447 0.563,0.563 0 0 0 56.527,9.226 c -0.334,0.148 -0.824,0.511 -1.02,0.276 -0.224,-0.269 0.259,-0.626 0.456,-0.92 A 59.828,59.828 0 0 0 60.5,0.445 c 0.1,-0.222 0.156,-0.681 0.593,-0.3 M 60.747,13.8 a 0.487,0.487 0 0 0 0.26,-0.386 17.87,17.87 0 0 1 1.7,-5.038 A 0.418,0.418 0 0 0 62.569,7.786 8.01,8.01 0 0 1 61.1,6.365 C 60.919,6.131 60.769,6.098 60.568,6.356 a 7.532,7.532 0 0 1 -1.462,1.422 c -0.271,0.2 -0.26,0.376 -0.111,0.668 a 18.371,18.371 0 0 1 1.054,2.568 25.992,25.992 0 0 1 0.7,2.788"
       transform="translate(-42.8)"
       fill="#000000" />
    <path
       id="trace_29"
       data-name="trace 29"
       d="m 15.592,96.044 c -0.013,0.269 -0.257,0.353 -0.417,0.494 a 20.267,20.267 0 0 0 -5.175,6.784 0.558,0.558 0 0 0 0.19,0.811 c 0.287,0.222 0.837,0.44 0.716,0.774 -0.129,0.358 -0.679,0.138 -1.029,0.107 a 59.992,59.992 0 0 0 -9.283,0.107 c -0.193,0.013 -0.447,0.131 -0.567,-0.108 -0.1,-0.2 0.1,-0.346 0.2,-0.5 a 62.511,62.511 0 0 0 5.049,-8.571 c 0.077,-0.157 0.137,-0.354 0.346,-0.306 0.173,0.04 0.141,0.246 0.17,0.39 0.271,1.344 -0.024,1.191 1.428,1.273 a 20.109,20.109 0 0 0 7.945,-1.222 2.5,2.5 0 0 1 0.324,-0.092 c 0.026,-0.006 0.062,0.033 0.1,0.057 m -3.535,2.031 c -0.047,-0.01 -0.089,-0.034 -0.118,-0.024 a 17.66,17.66 0 0 1 -5.53,1.171 0.424,0.424 0 0 0 -0.464,0.391 10.07,10.07 0 0 1 -0.541,2.084 c -0.1,0.238 0.015,0.356 0.256,0.377 a 6.278,6.278 0 0 1 1.909,0.529 c 0.384,0.165 0.535,0.032 0.725,-0.261 a 17.857,17.857 0 0 1 3.464,-3.893 c 0.12,-0.1 0.279,-0.182 0.3,-0.371"
       transform="translate(0,-73.816)"
       fill="#000000" />
    <path
       id="trace_30"
       data-name="trace 30"
       d="m 15.605,54.2 c -0.743,-0.224 -1.4,-0.442 -2.068,-0.621 A 19.039,19.039 0 0 0 6.607,52.91 c -0.429,0.044 -0.676,0.166 -0.688,0.62 a 0.8,0.8 0 0 1 -0.061,0.277 c -0.1,0.242 0.083,0.665 -0.275,0.71 -0.3,0.038 -0.332,-0.373 -0.438,-0.593 A 59.777,59.777 0 0 0 0.3,45.714 C 0.176,45.536 -0.071,45.356 0.069,45.12 c 0.12,-0.2 0.388,-0.1 0.584,-0.08 a 65.81,65.81 0 0 0 9.9,0.117 c 0.142,-0.007 0.33,-0.071 0.4,0.12 0.07,0.191 -0.132,0.252 -0.234,0.347 -0.907,0.842 -0.912,0.842 -0.337,1.966 a 20.218,20.218 0 0 0 4.789,6.016 0.948,0.948 0 0 1 0.444,0.6 M 12.07,52.069 a 21.275,21.275 0 0 1 -3.892,-4.43 0.334,0.334 0 0 0 -0.451,-0.122 10.593,10.593 0 0 1 -2.069,0.6 c -0.219,0.046 -0.36,0.126 -0.242,0.385 a 7.661,7.661 0 0 1 0.517,1.974 c 0.058,0.362 0.228,0.448 0.567,0.465 a 18.609,18.609 0 0 1 2.7,0.373 c 0.966,0.194 1.885,0.544 2.867,0.75"
       transform="translate(-0.018,-34.731)"
       fill="#000000" />
    <path
       id="trace_31"
       data-name="trace 31"
       d="M 104.424,105.276 A 51.926,51.926 0 0 0 95.49,105.24 c -0.19,0.015 -0.465,0.133 -0.563,-0.1 -0.098,-0.233 0.183,-0.343 0.329,-0.471 0.818,-0.712 0.828,-0.712 0.35,-1.681 a 20.178,20.178 0 0 0 -4.765,-6.111 c -0.056,-0.051 -0.123,-0.092 -0.174,-0.147 -0.1,-0.1 -0.311,-0.184 -0.224,-0.351 0.108,-0.208 0.312,-0.059 0.453,-0.012 a 23.3,23.3 0 0 0 4.255,1.02 21.213,21.213 0 0 0 4.264,0.091 c 0.37,-0.023 0.53,-0.2 0.553,-0.573 0.023,-0.373 -0.017,-0.931 0.321,-1 0.307,-0.065 0.408,0.51 0.556,0.815 a 59.952,59.952 0 0 0 4.675,7.86 c 0.086,0.125 0.169,0.252 0.253,0.378 0.177,0.264 0.085,0.39 -0.211,0.383 -0.38,-0.01 -0.759,-0.038 -1.138,-0.058 M 93.732,98.2 c 0.064,0.133 0.075,0.195 0.112,0.225 a 19.314,19.314 0 0 1 3.847,4.306 c 0.154,0.237 0.317,0.185 0.534,0.1 a 7.4,7.4 0 0 1 1.908,-0.539 c 0.36,-0.039 0.4,-0.215 0.29,-0.5 a 6.031,6.031 0 0 1 -0.433,-1.7 c -0.034,-0.515 -0.247,-0.683 -0.736,-0.7 a 14.773,14.773 0 0 1 -3.909,-0.684 c -0.515,-0.158 -1.028,-0.321 -1.614,-0.5"
       transform="translate(-69.795,-74.017)"
       fill="#000000" />
  </g>
  <metadata
     id="metadata3051">
    <rdf:RDF>
      <cc:Work
         rdf:about="">
        <dc:title>Cyro</dc:title>
        <cc:license
           rdf:resource="http://creativecommons.org/licenses/by-sa/4.0/" />
        <dc:creator>
          <cc:Agent>
            <dc:title>COGNOSPHERE PTE. LTD.</dc:title>
          </cc:Agent>
        </dc:creator>
        <dc:publisher>
          <cc:Agent>
            <dc:title>Clement Champouillon</dc:title>
          </cc:Agent>
        </dc:publisher>
        <dc:contributor>
          <cc:Agent>
            <dc:title>Clement Champouillon, Rong Bao</dc:title>
          </cc:Agent>
        </dc:contributor>
      </cc:Work>
      <cc:License
         rdf:about="http://creativecommons.org/licenses/by-sa/4.0/">
        <cc:permits
           rdf:resource="http://creativecommons.org/ns#Reproduction" />
        <cc:permits
           rdf:resource="http://creativecommons.org/ns#Distribution" />
        <cc:requires
           rdf:resource="http://creativecommons.org/ns#Notice" />
        <cc:requires
           rdf:resource="http://creativecommons.org/ns#Attribution" />
        <cc:permits
           rdf:resource="http://creativecommons.org/ns#DerivativeWorks" />
        <cc:requires
           rdf:resource="http://creativecommons.org/ns#ShareAlike" />
      </cc:License>
    </rdf:RDF>
  </metadata>
</svg>
