<?xml version="1.0" encoding="UTF-8" standalone="no"?>
<svg
   width="100"
   height="100"
   viewBox="0 0 43.809 41.44"
   version="1.1"
   id="svg2965"
   sodipodi:docname="dendro.svg"
   inkscape:version="1.2 (dc2aedaf03, 2022-05-15)"
   xmlns:inkscape="http://www.inkscape.org/namespaces/inkscape"
   xmlns:sodipodi="http://sodipodi.sourceforge.net/DTD/sodipodi-0.dtd"
   xmlns="http://www.w3.org/2000/svg"
   xmlns:svg="http://www.w3.org/2000/svg"
   xmlns:rdf="http://www.w3.org/1999/02/22-rdf-syntax-ns#"
   xmlns:cc="http://creativecommons.org/ns#"
   xmlns:dc="http://purl.org/dc/elements/1.1/">
  <title
     id="title2971">Dendro</title>
  <sodipodi:namedview
     id="namedview2967"
     pagecolor="#505050"
     bordercolor="#ffffff"
     borderopacity="1"
     inkscape:showpageshadow="0"
     inkscape:pageopacity="0"
     inkscape:pagecheckerboard="1"
     inkscape:deskcolor="#505050"
     showgrid="false"
     inkscape:zoom="5.35"
     inkscape:cx="50.373832"
     inkscape:cy="49.719626"
     inkscape:window-width="1366"
     inkscape:window-height="715"
     inkscape:window-x="-8"
     inkscape:window-y="-8"
     inkscape:window-maximized="1"
     inkscape:current-layer="svg2965" />
  <defs
     id="defs2956" />
  <g
     id="group_19"
     data-name="group 19">
    <path
       id="trace_21"
       data-name="trace 21"
       d="m 19.735,35.663 a 0.062,0.062 0 0 0 0.077,0.063 c 0.078,0.255 0.334,0.332 0.5,0.494 0.951,0.909 1.019,1.618 0.227,2.553 -0.416,0.492 -0.707,0.493 -1.111,-0.021 a 4.094,4.094 0 0 0 -1.494,-1.371 7.909,7.909 0 0 0 -4.9,-0.493 7.1,7.1 0 0 0 -5.634,5.283 9.7,9.7 0 0 0 1.895,9.088 15.286,15.286 0 0 0 6.532,4.516 c 2.259,0.953 4.413,1.977 5.658,4.261 0.309,0.567 0.456,0.543 0.816,-0.011 a 9.252,9.252 0 0 1 3.335,-3.165 c 1.536,-0.843 3.212,-1.374 4.738,-2.249 A 12.213,12.213 0 0 0 35.534,49.69 9.292,9.292 0 0 0 36,41.105 7.072,7.072 0 0 0 32.62,37.461 7.98,7.98 0 0 0 26.494,37.133 2.586,2.586 0 0 0 25.108,38.019 l -0.184,0.2 a 0.311,0.311 0 0 0 -0.258,0.252 v 0 c -0.2,0.089 -0.257,0.3 -0.372,0.455 a 0.446,0.446 0 0 1 -0.521,0.2 1.646,1.646 0 0 1 -0.836,-2.18 6.069,6.069 0 0 1 1.585,-1.472 8.444,8.444 0 0 1 7.921,-0.606 20.411,20.411 0 0 1 2.79,1.518 0.271,0.271 0 0 0 0.2,0.187 1.38,1.38 0 0 0 0.62,0.532 c 0.327,0.187 0.44,0.032 0.339,-0.308 0,-0.08 0,-0.16 0,-0.239 a 4.53,4.53 0 0 0 0.238,-0.867 c 0.139,-1.891 1.554,-2.364 2.865,-2.578 a 24.111,24.111 0 0 1 2.6,-0.134 c 0.357,-0.019 0.507,0.131 0.392,0.468 a 16.568,16.568 0 0 1 -1.1,2.93 2.893,2.893 0 0 1 -3.463,1.41 c -0.34,-0.085 -0.778,-0.359 -1.013,-0.052 -0.235,0.307 0.2,0.608 0.378,0.869 a 12.011,12.011 0 0 1 1.887,7.888 c -0.021,0.323 -0.24,0.789 0.073,0.947 0.269,0.136 0.493,-0.327 0.74,-0.518 a 1.713,1.713 0 0 1 1.8,-0.32 6.2,6.2 0 0 1 1.879,1.292 c 0.218,0.2 0.155,0.376 -0.058,0.547 a 5.9,5.9 0 0 1 -2.265,1.223 1.277,1.277 0 0 1 -1.2,-0.408 C 39.863,48.998 39.62,48.699 39.35,48.427 39.08,48.155 38.917,48.186 38.832,48.586 a 12.013,12.013 0 0 1 -5.195,7.7 37.385,37.385 0 0 1 -5.525,3.206 10.841,10.841 0 0 0 -5.712,6.1 c -0.115,0.287 -0.161,0.755 -0.478,0.767 -0.385,0.016 -0.408,-0.48 -0.534,-0.771 A 10.774,10.774 0 0 0 17.3,60.342 c -1.287,-0.794 -2.708,-1.329 -4,-2.114 A 24.541,24.541 0 0 1 8.238,54.647 11.721,11.721 0 0 1 4.972,48.574 C 4.942,48.417 4.944,48.22 4.736,48.204 4.528,48.188 4.425,48.348 4.406,48.55 H 4.369 v 0.037 c -0.23,0.07 -0.317,0.292 -0.462,0.449 A 1.447,1.447 0 0 1 2.145,49.517 10.732,10.732 0 0 1 0.4,48.585 c -0.511,-0.32 -0.53,-0.523 -0.053,-0.9 A 8.971,8.971 0 0 1 2.41,46.359 h 0.245 a 1.22,1.22 0 0 0 0.731,0.212 l 0.625,0.469 c 0.152,0.2 0.306,0.523 0.582,0.4 0.24,-0.111 0.085,-0.439 0.055,-0.663 a 12,12 0 0 1 0.014,-2.879 8.378,8.378 0 0 0 0.265,-1.772 l 0.021,-0.239 a 0.867,0.867 0 0 0 0.235,-0.48 8.588,8.588 0 0 1 1.3,-2.7 C 6.677,38.397 7.196,38.048 6.961,37.767 6.68,37.429 6.144,37.71 5.731,37.851 5.713,37.857 5.7,37.876 5.685,37.89 H 4.351 A 3.658,3.658 0 0 1 2.036,35.56 2.365,2.365 0 0 0 1.643,34.59 L 1.561,34.376 A 1.83,1.83 0 0 0 1.37,33.591 0.53,0.53 0 0 1 1.656,32.878 h 0.05 A 2.443,2.443 0 0 0 3.021,33 7.319,7.319 0 0 0 4.589,33.043 L 6.14,33.684 6.133,33.677 a 0.493,0.493 0 0 0 0.4,0.305 l 0.133,0.149 A 7.094,7.094 0 0 1 7.3,36.557 c 0.157,0.714 0.273,0.78 0.813,0.315 a 11.084,11.084 0 0 1 3.287,-1.995 8.231,8.231 0 0 1 6.34,-0.176 c 0.689,0.284 1.317,0.676 2,0.963"
       transform="translate(0,-24.913)"
       fill="#000000" />
    <path
       id="trace_22"
       data-name="trace 22"
       d="m 109.457,62.072 a 15.981,15.981 0 0 1 0.912,1.944 3.732,3.732 0 0 1 -0.58,2.984 c -0.262,0.4 -0.565,0.782 -0.839,1.179 -0.235,0.341 -0.315,0.6 0.257,0.691 a 2.5,2.5 0 0 1 1.723,1.214 0.333,0.333 0 0 1 0.065,0.338 0.227,0.227 0 0 1 -0.315,0.088 c -2.221,-0.835 -4.077,0.145 -5.926,1.179 a 25.391,25.391 0 0 0 -2.943,1.884 c -0.14,0.106 -0.324,0.273 -0.476,0.116 -0.173,-0.178 0.063,-0.314 0.157,-0.451 0.9,-1.3 2.18,-2.254 3.187,-3.453 a 5.008,5.008 0 0 0 1.288,-4.8 3.219,3.219 0 0 0 -2.645,-2.574 1.179,1.179 0 0 0 -0.918,0.172 l -0.367,-0.016 c -0.2,-0.571 0.2,-0.931 0.466,-1.341 l 0.14,-0.126 a 7.657,7.657 0 0 0 0.936,-0.491 7.7,7.7 0 0 1 2.828,-0.284 l 0.24,0.034 a 6.6,6.6 0 0 0 1.334,0.453 l 0.182,0.08 a 1.22,1.22 0 0 0 0.662,0.45 h 0.005 a 0.231,0.231 0 0 0 0.239,0.235 l 0.006,0.007 a 0.611,0.611 0 0 0 0.365,0.463 z"
       transform="translate(-76.741,-45.714)"
       fill="#000000" />
    <path
       id="trace_23"
       data-name="trace 23"
       d="m 48.224,72.225 c 0.144,0.409 0.544,0.635 0.729,1.017 0.058,0.12 0.235,0.229 0.12,0.363 -0.142,0.166 -0.291,0.009 -0.42,-0.074 -0.76,-0.484 -1.479,-1.029 -2.253,-1.5 a 17.8,17.8 0 0 0 -3.517,-1.692 4.072,4.072 0 0 0 -3.1,0.207 h -0.252 a 0.411,0.411 0 0 1 0.005,-0.592 2.969,2.969 0 0 1 1.483,-1.092 c 0.8,-0.277 0.79,-0.27 0.306,-0.957 a 5.845,5.845 0 0 1 -1.364,-2.589 4.872,4.872 0 0 1 3.14,-4.741 10.121,10.121 0 0 1 2.985,-0.3 l 0.238,0.041 c 0.2,0.09 0.4,0.174 0.595,0.27 a 2.718,2.718 0 0 1 1.652,1.839 l -0.043,0.005 -0.006,0.043 C 48.283,62.45 48.043,62.439 47.806,62.402 a 2.585,2.585 0 0 0 -2.546,1.1 l -0.161,0.211 c -0.216,0.074 -0.273,0.271 -0.358,0.452 -1.167,2.494 0.041,5.055 2.053,6.623 l 0.106,0.1 A 4.776,4.776 0 0 0 48,72 a 0.35,0.35 0 0 0 0.22,0.228"
       transform="translate(-29.86,-45.681)"
       fill="#000000" />
    <path
       id="trace_24"
       data-name="trace 24"
       d="m 75.982,6.623 a 6.745,6.745 0 0 1 1.36,-3.781 C 77.876,1.99 78.478,1.18 79.063,0.361 79.254,0.094 79.521,-0.224 79.807,0.229 a 31.257,31.257 0 0 1 2.83,4.481 3.953,3.953 0 0 1 -1.063,4.61 c -0.515,0.538 -1.074,1.034 -1.6,1.559 -0.264,0.262 -0.57,0.39 -0.847,0.107 A 18.007,18.007 0 0 1 76.358,7.966 3.143,3.143 0 0 1 75.985,6.624"
       transform="translate(-57.577,-0.001)"
       fill="#000000" />
  </g>
  <metadata
     id="metadata2969">
    <rdf:RDF>
      <cc:Work
         rdf:about="">
        <dc:title>Dendro</dc:title>
        <cc:license
           rdf:resource="http://creativecommons.org/licenses/by-sa/4.0/" />
        <dc:creator>
          <cc:Agent>
            <dc:title>COGNOSPHERE PTE. LTD.</dc:title>
          </cc:Agent>
        </dc:creator>
        <dc:publisher>
          <cc:Agent>
            <dc:title>Clement Champouillon</dc:title>
          </cc:Agent>
        </dc:publisher>
        <dc:contributor>
          <cc:Agent>
            <dc:title>Clement Champouillon, Rong Bao</dc:title>
          </cc:Agent>
        </dc:contributor>
      </cc:Work>
      <cc:License
         rdf:about="http://creativecommons.org/licenses/by-sa/4.0/">
        <cc:permits
           rdf:resource="http://creativecommons.org/ns#Reproduction" />
        <cc:permits
           rdf:resource="http://creativecommons.org/ns#Distribution" />
        <cc:requires
           rdf:resource="http://creativecommons.org/ns#Notice" />
        <cc:requires
           rdf:resource="http://creativecommons.org/ns#Attribution" />
        <cc:permits
           rdf:resource="http://creativecommons.org/ns#DerivativeWorks" />
        <cc:requires
           rdf:resource="http://creativecommons.org/ns#ShareAlike" />
      </cc:License>
    </rdf:RDF>
  </metadata>
</svg>
