<?xml version="1.0" encoding="UTF-8" standalone="no"?>
<svg
   width="100"
   height="100"
   viewBox="0 0 41.352 41.578"
   version="1.1"
   id="svg2901"
   sodipodi:docname="electro.svg"
   inkscape:version="1.2 (dc2aedaf03, 2022-05-15)"
   xmlns:inkscape="http://www.inkscape.org/namespaces/inkscape"
   xmlns:sodipodi="http://sodipodi.sourceforge.net/DTD/sodipodi-0.dtd"
   xmlns="http://www.w3.org/2000/svg"
   xmlns:svg="http://www.w3.org/2000/svg"
   xmlns:rdf="http://www.w3.org/1999/02/22-rdf-syntax-ns#"
   xmlns:cc="http://creativecommons.org/ns#"
   xmlns:dc="http://purl.org/dc/elements/1.1/">
  <title
     id="title2907">Electro</title>
  <sodipodi:namedview
     id="namedview2903"
     pagecolor="#505050"
     bordercolor="#ffffff"
     borderopacity="1"
     inkscape:showpageshadow="0"
     inkscape:pageopacity="0"
     inkscape:pagecheckerboard="1"
     inkscape:deskcolor="#505050"
     showgrid="false"
     inkscape:zoom="1.8915106"
     inkscape:cx="15.596"
     inkscape:cy="43.880272"
     inkscape:window-width="1366"
     inkscape:window-height="715"
     inkscape:window-x="-8"
     inkscape:window-y="-8"
     inkscape:window-maximized="1"
     inkscape:current-layer="svg2901" />
  <defs
     id="defs2896" />
  <g
     id="group_11"
     data-name="group 11">
    <path
       id="trace_12"
       data-name="trace 12"
       d="m 14.145,40.014 a 3.763,3.763 0 0 0 1.142,0 13.473,13.473 0 0 0 6.938,-1.27 A 2.286,2.286 0 0 0 21.583,38.466 18.2,18.2 0 0 1 16.3,36.161 C 12.8,33.805 11,30.585 11.375,26.291 a 1.279,1.279 0 0 1 0.161,-0.8 c 0.325,0.355 0.629,0.708 0.954,1.039 a 3.231,3.231 0 0 0 3.393,0.835 c 2.334,-0.627 3.289,-2.752 3.482,-4.7 a 6.655,6.655 0 0 0 -3.032,-6.29 7.644,7.644 0 0 0 -7.422,-0.8 6.686,6.686 0 0 0 -3.2,2.241 v 0 C 5.5,17.859 5.419,18.051 5.311,18.193 A 11.653,11.653 0 0 0 3.214,22.5 24.974,24.974 0 0 0 2.554,29.78 c 0.007,0.188 0.1,0.405 -0.134,0.616 A 17.191,17.191 0 0 1 1.162,27.59 24.476,24.476 0 0 1 0,21.817 Q 0,20.9 0,19.983 a 0.783,0.783 0 0 0 0.046,-0.161 20.73,20.73 0 0 1 4.829,-12.433 11.772,11.772 0 0 1 2.6,-2.5 L 7.58,5 A 7.64,7.64 0 0 1 6.729,6.589 14.847,14.847 0 0 0 4.557,12.331 c -0.02,0.187 -0.171,0.463 0.073,0.56 0.181,0.072 0.3,-0.191 0.424,-0.319 a 16.123,16.123 0 0 1 6.071,-4.082 10.453,10.453 0 0 1 10.1,1.6 c 0.085,0.061 0.224,0.1 0.2,0.244 -0.024,0.144 -0.164,0.128 -0.269,0.152 -0.259,0.057 -0.52,0.1 -0.778,0.167 a 3.417,3.417 0 0 0 -2.541,1.893 4.952,4.952 0 0 0 2.233,6.036 0.072,0.072 0 0 0 0.087,0.051 4.955,4.955 0 0 0 2.8,1.1 7.371,7.371 0 0 0 7.813,-4.8 C 32.153,11.227 31.17,8.014 28.639,5.17 A 21.632,21.632 0 0 0 21.964,0.433 C 21.803,0.352 21.587,0.333 21.564,0 c 0.931,0.09 1.853,0.137 2.761,0.272 a 20.421,20.421 0 0 1 11.713,6.252 19.9,19.9 0 0 1 5.174,9.506 2.091,2.091 0 0 1 0.064,0.392 c 0.008,0.194 0.192,0.478 -0.042,0.559 -0.277,0.1 -0.328,-0.253 -0.424,-0.429 a 27.276,27.276 0 0 0 -1.625,-2.665 13.11,13.11 0 0 0 -2.906,-3.093 c -0.146,-0.107 -0.268,-0.268 -0.492,-0.265 a 1,1 0 0 0 0.074,0.711 15.468,15.468 0 0 1 0.382,7.809 10.015,10.015 0 0 1 -6.38,7.437 c -0.105,0.042 -0.223,0.115 -0.321,0.042 -0.144,-0.107 -0.033,-0.238 0.014,-0.355 a 6.013,6.013 0 0 0 0.495,-1.8 3.77,3.77 0 0 0 -2.626,-3.71 3.65,3.65 0 0 0 -2.223,-0.182 l -0.229,0.032 a 4.207,4.207 0 0 0 -2.024,0.68 l -0.143,0.091 a 1.286,1.286 0 0 0 -0.821,0.517 l -0.088,0.062 a 1.912,1.912 0 0 0 -0.885,0.864 l -0.157,0.191 a 5.849,5.849 0 0 0 -1.442,2.9 8.179,8.179 0 0 0 6.224,9.439 12.088,12.088 0 0 0 7.336,-0.813 22.5,22.5 0 0 0 4.843,-2.6 4.431,4.431 0 0 1 0.384,-0.244 0.667,0.667 0 0 1 0.183,-0.038 c 0.115,0.243 -0.078,0.394 -0.179,0.546 A 20.647,20.647 0 0 1 24.369,41.222 19.529,19.529 0 0 1 14.224,40.469 c -0.146,-0.049 -0.33,-0.075 -0.358,-0.238 -0.031,-0.179 0.187,-0.141 0.281,-0.219"
       fill="#000000" />
  </g>
  <metadata
     id="metadata2905">
    <rdf:RDF>
      <cc:Work
         rdf:about="">
        <dc:title>Electro</dc:title>
        <cc:license
           rdf:resource="http://creativecommons.org/licenses/by-sa/4.0/" />
        <dc:creator>
          <cc:Agent>
            <dc:title>COGNOSPHERE PTE. LTD.</dc:title>
          </cc:Agent>
        </dc:creator>
        <dc:contributor>
          <cc:Agent>
            <dc:title>Clement Champouillon, Rong Bao</dc:title>
          </cc:Agent>
        </dc:contributor>
        <dc:publisher>
          <cc:Agent>
            <dc:title>Clement Champouillon</dc:title>
          </cc:Agent>
        </dc:publisher>
      </cc:Work>
      <cc:License
         rdf:about="http://creativecommons.org/licenses/by-sa/4.0/">
        <cc:permits
           rdf:resource="http://creativecommons.org/ns#Reproduction" />
        <cc:permits
           rdf:resource="http://creativecommons.org/ns#Distribution" />
        <cc:requires
           rdf:resource="http://creativecommons.org/ns#Notice" />
        <cc:requires
           rdf:resource="http://creativecommons.org/ns#Attribution" />
        <cc:permits
           rdf:resource="http://creativecommons.org/ns#DerivativeWorks" />
        <cc:requires
           rdf:resource="http://creativecommons.org/ns#ShareAlike" />
      </cc:License>
    </rdf:RDF>
  </metadata>
</svg>
