<?xml version="1.0" encoding="UTF-8" standalone="no"?>
<svg
   width="100"
   height="100"
   viewBox="0 0 38.158 41.424"
   version="1.1"
   id="svg3068"
   sodipodi:docname="geo.svg"
   inkscape:version="1.2 (dc2aedaf03, 2022-05-15)"
   xmlns:inkscape="http://www.inkscape.org/namespaces/inkscape"
   xmlns:sodipodi="http://sodipodi.sourceforge.net/DTD/sodipodi-0.dtd"
   xmlns="http://www.w3.org/2000/svg"
   xmlns:svg="http://www.w3.org/2000/svg"
   xmlns:rdf="http://www.w3.org/1999/02/22-rdf-syntax-ns#"
   xmlns:cc="http://creativecommons.org/ns#"
   xmlns:dc="http://purl.org/dc/elements/1.1/">
  <title
     id="title3141">Geo</title>
  <sodipodi:namedview
     id="namedview3128"
     pagecolor="#505050"
     bordercolor="#ffffff"
     borderopacity="1"
     inkscape:showpageshadow="0"
     inkscape:pageopacity="0"
     inkscape:pagecheckerboard="1"
     inkscape:deskcolor="#505050"
     showgrid="false"
     inkscape:zoom="5.35"
     inkscape:cx="42.336449"
     inkscape:cy="57.570093"
     inkscape:window-width="1366"
     inkscape:window-height="715"
     inkscape:window-x="-8"
     inkscape:window-y="-8"
     inkscape:window-maximized="1"
     inkscape:current-layer="group_29" />
  <defs
     id="defs3120" />
  <g
     id="group_16"
     data-name="group 16">
    <path
       id="trace_18"
       data-name="trace 18"
       d="m 49.408,10.131 a 0.62,0.62 0 0 0 0.344,0.359 0.586,0.586 0 0 0 0.377,0.454 l 2.139,2.385 a 4.8,4.8 0 0 0 1.177,1.432 l 0.388,0.583 a 0.544,0.544 0 0 0 0.323,0.49 2.7,2.7 0 0 0 0.6,0.82 c 0,0.221 0.146,0.33 0.315,0.423 a 6.157,6.157 0 0 0 0.889,1.473 6.318,6.318 0 0 0 0.928,1.478 1.162,1.162 0 0 1 -0.021,1.368 49.743,49.743 0 0 1 -3.416,4.661 c -0.166,0.2 -0.312,0.412 -0.6,0.441 l -0.115,-0.115 c -0.069,-0.238 -0.083,-0.505 -0.334,-0.65 a 0.662,0.662 0 0 0 -0.2,-0.525 c 0.06,-0.109 0.016,-0.185 -0.079,-0.243 A 0.353,0.353 0 0 0 52.014,24.607 0.169,0.169 0 0 0 51.896,24.369 0.365,0.365 0 0 0 51.77,24.015 1.291,1.291 0 0 0 51.422,23.182 L 51.375,22.953 A 1.525,1.525 0 0 0 50.9,22.019 l -0.017,-0.046 a 0.29,0.29 0 0 0 -0.178,-0.332 0.273,0.273 0 0 0 -0.063,-0.264 26.527,26.527 0 0 0 -1.7,-3.56 c -0.827,-1.524 -1.7,-3.022 -2.645,-4.477 a 78.989,78.989 0 0 0 -4.97,-6.844 c -0.833,-1.027 -1.6,-2.1 -2.5,-3.081 C 38.787,3.371 38.754,3.322 38.715,3.278 37.951,2.422 37.969,2.439 37.223,3.286 a 60.473,60.473 0 0 0 -4.723,6.125 28.744,28.744 0 0 0 -2.616,5.16 0.446,0.446 0 0 0 -0.009,0.436 6.025,6.025 0 0 0 1.559,-1.2 c 1.711,-1.43 3.4,-2.887 5.089,-4.343 0.313,-0.27 0.584,-0.588 0.88,-0.879 0.349,-0.344 0.658,-0.409 1.044,0.011 a 46.5,46.5 0 0 1 6.419,8.246 c 0.284,0.5 0.618,0.964 0.929,1.444 a 1.031,1.031 0 0 1 -0.078,1.535 34.353,34.353 0 0 1 -4.142,3.795 c -0.447,0.387 -0.91,0.754 -1.355,1.144 -0.8,0.7 -1.394,0.648 -2.035,-0.193 -1.009,-1.325 -0.82,-1.317 0.255,-2.37 1.042,-1.021 2.166,-1.955 3.11,-3.079 a 0.969,0.969 0 0 0 0.137,-1.272 14.42,14.42 0 0 0 -3.4,-4.131 0.693,0.693 0 0 0 -0.942,-0.051 36.207,36.207 0 0 0 -5.669,4.453 30.858,30.858 0 0 0 -2.9,2.962 c -0.523,0.628 -0.711,0.55 -1.122,-0.159 a 30.469,30.469 0 0 1 -1.923,-4.121 17.8,17.8 0 0 1 -0.846,-3.018 1.879,1.879 0 0 1 0.332,-1.461 30.759,30.759 0 0 1 3.439,-4.064 71.565,71.565 0 0 1 5.172,-4.952 c 1.2,-1.025 2.425,-2.021 3.628,-3.043 A 0.839,0.839 0 0 1 38.706,0.3 C 40.82,2.133 43,3.9 45.03,5.828 c 1.386,1.319 2.78,2.63 4.07,4.046 0.089,0.1 0.147,0.242 0.307,0.257"
       transform="translate(-18.946)"
       fill="#000000" />
    <path
       id="trace_19"
       data-name="trace 19"
       d="m 28,82.4 -0.26,0.249 a 0.637,0.637 0 0 0 -0.452,0.463 l -0.26,0.25 a 1.767,1.767 0 0 0 -0.8,0.82 l -0.5,0.4 a 15.049,15.049 0 0 0 -2.216,1.974 0.068,0.068 0 0 0 -0.066,0.074 1,1 0 0 0 -0.6,0.487 v 0 a 21.705,21.705 0 0 0 -1.851,1.52 3.357,3.357 0 0 0 -1.055,0.9 H 19.9 v 0.033 c -0.864,0.544 -0.848,0.525 -1.669,-0.127 a 98.724,98.724 0 0 1 -9.88,-9 57,57 0 0 1 -6.819,-8.457 C 1.084,71.292 0.677,70.57 0.201,69.893 A 0.875,0.875 0 0 1 0.178,68.793 31.091,31.091 0 0 1 3.34,64.525 6.218,6.218 0 0 0 3.751,63.95 c 0.337,-0.43 0.5,-0.413 0.762,0.057 a 17.27,17.27 0 0 1 0.819,2.15 58.789,58.789 0 0 0 3.133,6.554 60.9,60.9 0 0 0 4.08,6.573 c 1.539,2.1 3.053,4.217 4.772,6.178 0.545,0.622 1.046,1.284 1.562,1.931 0.178,0.223 0.361,0.321 0.576,0.058 q 1.293,-1.578 2.579,-3.162 c 0.019,-0.023 0,-0.075 0,-0.114 l 0.223,-0.274 a 12.864,12.864 0 0 0 1.556,-1.986 27.586,27.586 0 0 0 3.408,-6.317 c 0.054,-0.14 0.166,-0.336 0.016,-0.438 -0.185,-0.128 -0.325,0.087 -0.446,0.19 -1.128,0.955 -2.258,1.907 -3.359,2.893 a 7.331,7.331 0 0 0 -1.325,1.148 l 0.032,0.028 -0.029,-0.031 a 4.361,4.361 0 0 0 -1.188,0.97 2.672,2.672 0 0 0 -0.668,0.654 c -0.168,-0.012 -0.237,0.123 -0.322,0.225 -0.508,0.61 -0.725,0.622 -1.276,0.079 a 42.13,42.13 0 0 1 -6.7,-8.613 c -0.26,-0.44 -0.5,-0.893 -0.762,-1.331 -0.288,-0.484 -0.008,-0.828 0.276,-1.164 a 35.461,35.461 0 0 1 2.69,-2.58 c 0.912,-0.876 1.966,-1.581 2.906,-2.423 0.76,-0.682 1.012,-0.664 1.7,0.078 a 1.812,1.812 0 0 1 0.163,0.171 c 0.665,0.94 1.167,1.18 -0.117,2.337 a 30.36,30.36 0 0 0 -3.107,3.058 v 0 c -0.319,0.168 -0.585,0.445 -0.438,0.787 a 9.135,9.135 0 0 0 2.26,3.358 0.229,0.229 0 0 0 0.185,0.18 3.8,3.8 0 0 0 1.36,1.342 c 0.3,0.212 0.6,-0.038 0.872,-0.193 a 27.537,27.537 0 0 0 4.9,-3.8 37.137,37.137 0 0 0 3.8,-3.723 c 0.279,-0.341 0.563,-0.292 0.74,0.08 a 27.849,27.849 0 0 1 2.42,5.882 3.121,3.121 0 0 0 0.184,0.562 2.837,2.837 0 0 1 -0.688,3.2 c -0.138,0.158 -0.325,0.3 -0.32,0.546 h -0.033 v 0.032 A 2.788,2.788 0 0 0 30.067,80.234 0.068,0.068 0 0 0 30,80.3 4.968,4.968 0 0 0 28.709,81.692 l -0.012,0.011 a 1.336,1.336 0 0 0 -0.7,0.695"
       transform="translate(0,-48.526)"
       fill="#000000" />
  </g>
  <metadata
     id="metadata3139">
    <rdf:RDF>
      <cc:Work
         rdf:about="">
        <dc:title>Geo</dc:title>
        <cc:license
           rdf:resource="http://creativecommons.org/licenses/by-sa/4.0/" />
        <dc:creator>
          <cc:Agent>
            <dc:title>COGNOSPHERE PTE. LTD.</dc:title>
          </cc:Agent>
        </dc:creator>
        <dc:publisher>
          <cc:Agent>
            <dc:title>Clement Champouillon</dc:title>
          </cc:Agent>
        </dc:publisher>
        <dc:contributor>
          <cc:Agent>
            <dc:title>Clement Champouillon, Rong Bao</dc:title>
          </cc:Agent>
        </dc:contributor>
      </cc:Work>
      <cc:License
         rdf:about="http://creativecommons.org/licenses/by-sa/4.0/">
        <cc:permits
           rdf:resource="http://creativecommons.org/ns#Reproduction" />
        <cc:permits
           rdf:resource="http://creativecommons.org/ns#Distribution" />
        <cc:requires
           rdf:resource="http://creativecommons.org/ns#Notice" />
        <cc:requires
           rdf:resource="http://creativecommons.org/ns#Attribution" />
        <cc:permits
           rdf:resource="http://creativecommons.org/ns#DerivativeWorks" />
        <cc:requires
           rdf:resource="http://creativecommons.org/ns#ShareAlike" />
      </cc:License>
    </rdf:RDF>
  </metadata>
</svg>
