<?xml version="1.0" encoding="UTF-8" standalone="no"?>
<svg
   width="100"
   height="100"
   viewBox="0 0 41.34 41.286"
   version="1.1"
   id="svg281"
   sodipodi:docname="hydro.svg"
   inkscape:version="1.2 (dc2aedaf03, 2022-05-15)"
   xmlns:inkscape="http://www.inkscape.org/namespaces/inkscape"
   xmlns:sodipodi="http://sodipodi.sourceforge.net/DTD/sodipodi-0.dtd"
   xmlns="http://www.w3.org/2000/svg"
   xmlns:svg="http://www.w3.org/2000/svg"
   xmlns:rdf="http://www.w3.org/1999/02/22-rdf-syntax-ns#"
   xmlns:cc="http://creativecommons.org/ns#"
   xmlns:dc="http://purl.org/dc/elements/1.1/">
  <title
     id="title287">Hydro</title>
  <sodipodi:namedview
     id="namedview283"
     pagecolor="#505050"
     bordercolor="#ffffff"
     borderopacity="1"
     inkscape:showpageshadow="0"
     inkscape:pageopacity="0"
     inkscape:pagecheckerboard="1"
     inkscape:deskcolor="#505050"
     showgrid="false"
     inkscape:zoom="4"
     inkscape:cx="39.625"
     inkscape:cy="53.25"
     inkscape:window-width="1366"
     inkscape:window-height="715"
     inkscape:window-x="-8"
     inkscape:window-y="-8"
     inkscape:window-maximized="1"
     inkscape:current-layer="svg281" />
  <defs
     id="defs272" />
  <g
     id="group_8"
     data-name="group 8">
    <path
       id="trace_8"
       data-name="trace 8"
       d="m 12.535,6.053 a 23.706,23.706 0 0 1 4.365,-3.234 20.465,20.465 0 0 1 14.993,-2.27 20.229,20.229 0 0 1 14.137,11.5 19.341,19.341 0 0 1 1.923,7.362 1.153,1.153 0 0 0 0.062,0.231 q 0,1.11 0,2.219 -0.227,1.6 -0.454,3.2 l -0.037,0.242 -0.986,3.192 -0.062,0.169 a 1.473,1.473 0 0 0 -0.4,0.818 l -0.072,0.2 a 0.356,0.356 0 0 0 -0.214,0.407 0.053,0.053 0 0 0 -0.034,0.079 1.265,1.265 0 0 0 -0.448,0.782 0.059,0.059 0 0 0 -0.041,0.083 c -0.256,0.132 -0.328,0.407 -0.468,0.623 a 21.007,21.007 0 0 1 -9.922,8.211 20.672,20.672 0 0 1 -6.294,1.421 h -2.589 a 29.033,29.033 0 0 1 -3.385,-0.508 11.832,11.832 0 0 1 -6.58,-3.647 c -0.114,-0.124 -0.343,-0.251 -0.183,-0.443 0.131,-0.159 0.3,0.021 0.434,0.089 a 30.334,30.334 0 0 0 4.012,1.667 13.032,13.032 0 0 0 3.63,0.765 l 0.368,0.039 c 0.5,0.068 1.005,0.153 1.511,0.2 a 11.694,11.694 0 0 0 5.724,-0.74 11.156,11.156 0 0 0 -7.106,-21.1 3.71,3.71 0 0 1 -2.167,0.212 2.838,2.838 0 0 1 -2,-2.528 2.676,2.676 0 0 1 1.847,-2.749 13.661,13.661 0 0 1 9.834,-0.238 c 5.337,1.937 8.685,5.7 9.582,11.276 0.929,5.763 -1.216,10.462 -5.863,14.006 -0.166,0.127 -0.4,0.2 -0.469,0.447 0.344,-0.028 0.345,-0.026 0.518,-0.125 a 16.253,16.253 0 0 0 7.585,-9.339 11.26,11.26 0 0 0 0.727,-3.892 q 0.006,-0.188 0.012,-0.375 A 2.351,2.351 0 0 0 44.093,23.951 15.731,15.731 0 0 0 42.217,15.62 16.629,16.629 0 0 0 30.565,6.94 10.6,10.6 0 0 0 26.976,6.661 a 0.751,0.751 0 0 0 -0.48,0 4.967,4.967 0 0 0 -0.6,-0.029 15.4,15.4 0 0 0 -4.541,1.126 12.884,12.884 0 0 0 -3.514,1.912 l -0.051,0.011 -0.015,0.05 a 0.256,0.256 0 0 0 -0.29,0.194 l -0.1,0.088 a 0.387,0.387 0 0 0 -0.379,0.28 0.07,0.07 0 0 0 -0.086,0.056 0.471,0.471 0 0 0 -0.4,0.321 6.7,6.7 0 0 0 -1.463,1.457 0.467,0.467 0 0 0 -0.332,0.405 l -0.014,0.014 a 0.563,0.563 0 0 0 -0.354,0.469 0.055,0.055 0 0 0 -0.05,0.075 0.821,0.821 0 0 0 -0.437,0.54 l -0.4,0.392 A 3.281,3.281 0 0 1 11.253,14.481 2.575,2.575 0 0 1 8.974,11.132 6.562,6.562 0 0 1 9.807,9.5 c 0.817,-1.222 1.8,-2.31 2.725,-3.447 z M 35.1,38.142 c -0.039,-0.022 -0.081,-0.065 -0.124,-0.065 -0.1,0 -0.206,0.025 -0.225,0.146 0,0.023 0.071,0.083 0.111,0.084 A 0.207,0.207 0 0 0 35.1,38.142"
       transform="translate(-6.674)"
       fill="#000000" />
    <path
       id="trace_9"
       data-name="trace 9"
       d="m 59.144,94.7 0.475,-0.069 a 1.023,1.023 0 0 0 0.752,-0.059 h 0.842 a 0.5,0.5 0 0 0 0.507,0.045 1.74,1.74 0 0 0 0.722,0.072 0.62,0.62 0 0 0 0.629,0.183 l 0.232,0.058 a 0.169,0.169 0 0 0 0.248,0.12 7.81,7.81 0 0 1 3.049,2.356 c 1.215,1.7 1.692,3.978 0.208,5.746 -0.356,0.425 -0.932,0.435 -1.408,0.631 a 2.566,2.566 0 0 0 -0.868,-0.029 l -0.231,-0.057 a 0.173,0.173 0 0 0 -0.24,-0.125 l -0.156,-0.06 a 0.6,0.6 0 0 0 -0.455,-0.3 0.651,0.651 0 0 0 -0.342,-0.345 0.568,0.568 0 0 0 -0.308,-0.453 l -0.064,-0.154 a 0.177,0.177 0 0 0 -0.141,-0.238 l -0.081,-0.27 a 0.265,0.265 0 0 0 -0.156,-0.346 l -0.061,-0.23 a 0.587,0.587 0 0 0 -0.242,-0.6 l 0.012,-0.039 -0.03,-0.027 a 0.761,0.761 0 0 0 -0.483,-0.635 l -0.025,-0.02 a 0.261,0.261 0 0 0 -0.287,-0.216 l -0.158,-0.06 a 0.526,0.526 0 0 0 -0.61,-0.221 1.4,1.4 0 0 0 -0.984,-0.056 1.817,1.817 0 0 0 -1.572,0.557 l -0.044,0.023 c -0.17,-0.009 -0.252,0.1 -0.32,0.233 a 0.364,0.364 0 0 0 -0.264,0.215 c -0.18,0 -0.26,0.124 -0.313,0.273 l -0.013,0.013 c -0.151,0.052 -0.27,0.133 -0.272,0.314 a 1.448,1.448 0 0 0 -0.532,0.973 0.165,0.165 0 0 0 -0.1,0.251 3.345,3.345 0 0 0 -0.089,1.837 0.631,0.631 0 0 0 0.158,0.632 2.779,2.779 0 0 0 0.858,1.61 0.387,0.387 0 0 0 0.292,0.362 4.057,4.057 0 0 0 2.205,1.394 0.162,0.162 0 0 0 0.247,0.1 1,1 0 0 0 0.618,0.118 2.859,2.859 0 0 0 2.114,0.014 0.753,0.753 0 0 0 0.472,-0.085 1.958,1.958 0 0 0 1.218,-0.466 l 0.16,-0.061 a 0.327,0.327 0 0 0 0.331,-0.19 2.56,2.56 0 0 0 1.026,-0.669 2.121,2.121 0 0 0 0.938,-0.83 c 0.1,0 0.164,-0.032 0.172,-0.141 0.171,0.118 -0.039,0.271 0.037,0.4 a 8.857,8.857 0 0 1 -3.765,2.812 0.169,0.169 0 0 0 -0.247,0.112 l -0.505,0.1 a 0.417,0.417 0 0 0 -0.48,0.118 l -2.057,0.006 a 0.424,0.424 0 0 0 -0.491,-0.1 l -0.616,-0.126 a 0.272,0.272 0 0 0 -0.348,-0.145 l -0.385,-0.135 c -0.032,-0.123 -0.114,-0.147 -0.226,-0.114 l -0.17,-0.056 a 0.282,0.282 0 0 0 -0.32,-0.191 10.922,10.922 0 0 1 -2.3,-1.927 l -0.888,-1.389 -0.106,-0.316 a 3.48,3.48 0 0 0 -0.364,-0.974 l -0.109,-0.642 0.014,-0.03 -0.02,-0.026 c 0.016,-0.12 0.041,-0.243 -0.109,-0.3 v 0 a 0.315,0.315 0 0 0 -0.007,-0.362 0.123,0.123 0 0 0 -0.023,-0.2 0.608,0.608 0 0 0 -0.023,-0.517 0.682,0.682 0 0 0 0.053,-0.586 l 0.028,-0.13 a 0.153,0.153 0 0 0 0.043,-0.25 l 0.053,-0.3 v -0.025 a 11.329,11.329 0 0 1 0.44,-1.72 c 0.072,-0.021 0.186,-0.02 0.209,-0.065 a 15.556,15.556 0 0 1 1.3,-1.873 l 0.015,-0.015 a 0.246,0.246 0 0 0 0.231,-0.225 l 0.022,-0.019 a 0.44,0.44 0 0 0 0.354,-0.325 l 0.03,-0.03 a 4.625,4.625 0 0 0 1.232,-0.83 c 0.521,-0.133 0.937,-0.54 1.5,-0.576 a 0.258,0.258 0 0 0 0.373,-0.112"
       transform="translate(-40.177,-71.329)"
       fill="#000000" />
    <path
       id="trace_10"
       data-name="trace 10"
       d="M 2.736,73.8 A 3.047,3.047 0 0 1 5.206,75.163 2.722,2.722 0 0 1 4,79.213 C 3.857,79.277 3.669,79.262 3.59,79.441 L 3.235,79.509 A 1.644,1.644 0 0 0 2.489,79.516 L 2.131,79.465 0.7,78.58 V 78.573 A 4.037,4.037 0 0 1 0,76.458 l 0.075,-0.522 a 3.113,3.113 0 0 0 0.5,-0.971 L 1.167,74.377 C 1.33,74.363 1.477,74.325 1.528,74.14 L 1.9,74 a 0.28,0.28 0 0 0 0.364,-0.132 l 0.477,-0.071"
       transform="translate(0,-55.667)"
       fill="#000000" />
    <path
       id="trace_11"
       data-name="trace 11"
       d="m 19.075,117.664 a 2.139,2.139 0 0 1 -0.154,-2.094 1.972,1.972 0 1 1 3.492,1.83 c -0.065,0.124 -0.192,0.218 -0.178,0.379 l -0.711,0.52 a 0.762,0.762 0 0 0 -0.624,0.2 h -0.355 l -0.971,-0.382 -0.5,-0.456"
       transform="translate(-14.111,-86.355)"
       fill="#000000" />
  </g>
  <metadata
     id="metadata285">
    <rdf:RDF>
      <cc:Work
         rdf:about="">
        <dc:title>Hydro</dc:title>
        <dc:creator>
          <cc:Agent>
            <dc:title>COGNOSPHERE PTE. LTD.</dc:title>
          </cc:Agent>
        </dc:creator>
        <dc:publisher>
          <cc:Agent>
            <dc:title>Clement Champouillon</dc:title>
          </cc:Agent>
        </dc:publisher>
        <dc:contributor>
          <cc:Agent>
            <dc:title>Clement Champouillon, Rong Bao</dc:title>
          </cc:Agent>
        </dc:contributor>
      </cc:Work>
    </rdf:RDF>
  </metadata>
</svg>
