<?xml version="1.0" encoding="UTF-8" standalone="no"?>
<svg
   width="100"
   height="100"
   viewBox="0 0 34.341 41.87"
   version="1.1"
   id="svg35"
   sodipodi:docname="pyro.svg"
   inkscape:version="1.2 (dc2aedaf03, 2022-05-15)"
   xmlns:inkscape="http://www.inkscape.org/namespaces/inkscape"
   xmlns:sodipodi="http://sodipodi.sourceforge.net/DTD/sodipodi-0.dtd"
   xmlns="http://www.w3.org/2000/svg"
   xmlns:svg="http://www.w3.org/2000/svg"
   xmlns:rdf="http://www.w3.org/1999/02/22-rdf-syntax-ns#"
   xmlns:cc="http://creativecommons.org/ns#"
   xmlns:dc="http://purl.org/dc/elements/1.1/">
  <title
     id="title157">Pyro</title>
  <sodipodi:namedview
     id="namedview37"
     pagecolor="#505050"
     bordercolor="#ffffff"
     borderopacity="1"
     inkscape:showpageshadow="0"
     inkscape:pageopacity="0"
     inkscape:pagecheckerboard="1"
     inkscape:deskcolor="#505050"
     showgrid="false"
     inkscape:zoom="5.12"
     inkscape:cx="50.097656"
     inkscape:cy="50"
     inkscape:window-width="1366"
     inkscape:window-height="715"
     inkscape:window-x="-8"
     inkscape:window-y="-8"
     inkscape:window-maximized="1"
     inkscape:current-layer="svg35" />
  <defs
     id="defs26" />
  <g
     id="group_6"
     data-name="group 6">
    <path
       id="trace_3"
       data-name="trace 3"
       d="m 25.008,21.133 a 5.04,5.04 0 0 0 -1.092,-2.155 5.029,5.029 0 0 1 -0.393,-6.291 5.141,5.141 0 0 1 1.154,-1.592 c 0.145,0.534 0.266,1.029 0.414,1.516 a 11.629,11.629 0 0 0 4.131,5.912 14.648,14.648 0 0 1 4.2,5.036 c 1.553,3.075 1.147,5.582 -1.288,8.026 a 12.85,12.85 0 0 1 -0.975,0.877 29.1,29.1 0 0 1 -5.044,3.265 35.9,35.9 0 0 0 -8.2,5.792 c -0.107,0.1 -0.29,0.153 -0.275,0.353 H 17.4 A 9.582,9.582 0 0 0 15.639,40.32 64.04,64.04 0 0 0 6,34.089 33.421,33.421 0 0 1 2.4,31.753 5.175,5.175 0 0 1 0.3,25.533 17.145,17.145 0 0 1 3.339,19.709 c 0.976,-1.279 1.995,-2.526 2.984,-3.8 a 19.921,19.921 0 0 0 2.745,-4.526 10.065,10.065 0 0 0 0.262,1.884 6.822,6.822 0 0 0 2.57,3.564 20.566,20.566 0 0 0 5.073,2.6 c 0.087,0.034 0.2,0.024 0.247,0.2 a 11.188,11.188 0 0 0 -2.559,0.3 c -3.577,0.966 -5.91,3.14 -6.6,6.872 a 6.153,6.153 0 0 0 1.4,5.062 c 0.206,0.265 0.434,0.513 0.655,0.773 -0.174,0.113 -0.294,0.007 -0.407,-0.055 A 13.116,13.116 0 0 1 5.48,29.242 6.041,6.041 0 0 1 4.933,22.266 a 22.991,22.991 0 0 1 1.26,-1.993 4.858,4.858 0 0 0 -1.6,1.064 6.386,6.386 0 0 0 -2.471,4.017 5.762,5.762 0 0 0 1.578,4.987 13.539,13.539 0 0 0 3.554,2.473 c 3.309,1.805 6.754,3.379 9.759,5.7 a 0.484,0.484 0 0 0 0.678,0.008 112.2,112.2 0 0 1 10.821,-6.5 13.765,13.765 0 0 0 2.176,-1.457 5.136,5.136 0 0 0 0.523,-7.9 7.735,7.735 0 0 0 -2.195,-1.713 c -0.09,-0.034 -0.089,0.058 -0.13,0.092 a 17.537,17.537 0 0 1 1.039,3.223 7.2,7.2 0 0 1 -2.578,7.333 C 23.31,34.91 18.8,36.124 13.742,34.1 a 6.984,6.984 0 0 1 -2.388,-1.542 3.458,3.458 0 0 1 -0.825,-3.986 3.394,3.394 0 0 1 3.69,-1.8 2.222,2.222 0 0 1 1.081,0.228 4.553,4.553 0 0 0 -1.982,2.531 3.3,3.3 0 0 0 1.919,4.07 8,8 0 0 0 5.6,0.126 9.514,9.514 0 0 0 2.895,-1.368 6.293,6.293 0 0 0 1.076,-9 12.249,12.249 0 0 0 -4.929,-3.536 c -1.556,-0.652 -3.15,-1.214 -4.645,-2.007 A 8.533,8.533 0 0 1 12.368,15.53 5.209,5.209 0 0 1 11.937,9.456 28.762,28.762 0 0 1 14.128,6.4 11.814,11.814 0 0 0 16.641,0.946 2.618,2.618 0 0 0 16.688,0 h 0.239 c 0.686,0.964 1.382,1.922 2.056,2.9 a 9.615,9.615 0 0 1 1.436,2.856 2.907,2.907 0 0 1 -0.742,3.018 c -0.375,0.381 -0.8,0.716 -1.195,1.074 a 7.228,7.228 0 0 0 -2.447,3.919 3.8,3.8 0 0 0 1.891,3.953 c 0.089,-0.174 -0.075,-0.251 -0.148,-0.347 A 3.757,3.757 0 0 1 17.378,13.278 8.975,8.975 0 0 1 20.383,9.8 C 20.744,9.535 21.131,9.3 21.59,9 c -0.219,0.869 -0.406,1.634 -0.605,2.4 a 7.994,7.994 0 0 0 1,6.346 15.642,15.642 0 0 0 2.809,3.376 0.178,0.178 0 0 0 0.217,0.007"
       transform="translate(0.001,-0.001)"
       fill="#000000" />
    <path
       id="trace_4"
       data-name="trace 4"
       d="m 101.7,186.2 a 5.294,5.294 0 0 1 5.771,-3.439 5.582,5.582 0 0 1 5.384,4.49 3.107,3.107 0 0 1 -0.63,2.746 8.224,8.224 0 0 1 -3.545,2.323 c -0.021,-0.074 -0.046,-0.12 -0.036,-0.131 1.467,-1.554 1.072,-4.631 -1.424,-5.963 a 5.7,5.7 0 0 0 -4.954,-0.157 c -0.167,0.065 -0.33,0.136 -0.5,0.2 a 0.063,0.063 0 0 1 -0.071,-0.072"
       transform="translate(-89.562,-160.924)"
       fill="#000000" />
    <path
       id="trace_5"
       data-name="trace 5"
       d="m 101.357,211.818 -0.128,0.031 0.056,-0.1 q 0.037,0.035 0.071,0.072"
       transform="translate(-89.147,-186.473)"
       fill="#000000" />
    <path
       id="trace_6"
       data-name="trace 6"
       d="m 207.932,177 c 0.026,0.062 0.011,0.113 -0.059,0.118 a 0.14,0.14 0 0 1 -0.158,-0.125 l 0.217,0.007"
       transform="translate(-182.924,-155.869)"
       fill="#000000" />
    <path
       id="trace_7"
       data-name="trace 7"
       d="m 241.677,175.155 c -0.027,-0.058 -0.084,-0.127 0.013,-0.164 0.026,-0.01 0.077,0.046 0.117,0.071 l -0.13,0.092"
       transform="translate(-212.796,-154.105)"
       fill="#000000" />
  </g>
  <metadata
     id="metadata155">
    <rdf:RDF>
      <cc:Work
         rdf:about="">
        <dc:title>Pyro</dc:title>
        <dc:creator>
          <cc:Agent>
            <dc:title>COGNOSPHERE PTE. LTD.</dc:title>
          </cc:Agent>
        </dc:creator>
        <dc:publisher>
          <cc:Agent>
            <dc:title>Clement Champouillon</dc:title>
          </cc:Agent>
        </dc:publisher>
        <dc:contributor>
          <cc:Agent>
            <dc:title>Clement Champouillon, Rong Bao</dc:title>
          </cc:Agent>
        </dc:contributor>
        <cc:license
           rdf:resource="http://creativecommons.org/licenses/by-sa/4.0/" />
      </cc:Work>
      <cc:License
         rdf:about="http://creativecommons.org/licenses/by-sa/4.0/">
        <cc:permits
           rdf:resource="http://creativecommons.org/ns#Reproduction" />
        <cc:permits
           rdf:resource="http://creativecommons.org/ns#Distribution" />
        <cc:requires
           rdf:resource="http://creativecommons.org/ns#Notice" />
        <cc:requires
           rdf:resource="http://creativecommons.org/ns#Attribution" />
        <cc:permits
           rdf:resource="http://creativecommons.org/ns#DerivativeWorks" />
        <cc:requires
           rdf:resource="http://creativecommons.org/ns#ShareAlike" />
      </cc:License>
    </rdf:RDF>
  </metadata>
</svg>
